<svg width="67" height="66" viewBox="0 0 67 66" fill="none" xmlns="http://www.w3.org/2000/svg">
<path opacity="0.5" d="M46.285 39.1444C44.1319 40.6176 40.3356 37.5579 38.6924 39.8243C37.1059 42.0341 45.4351 48.7768 48.2115 47.4736C52.9144 45.2638 55.974 40.6742 55.974 38.9744C56.0307 37.3312 53.8209 33.9882 46.285 39.1444Z" fill="white"/>
<path d="M44.2451 2.0881C40.6754 0.784892 36.9358 0.161621 33.1395 0.161621C15.008 0.161621 0.276123 14.8935 0.276123 33.025C0.276123 51.1565 15.008 65.8884 33.1395 65.8884C51.271 65.8884 66.0029 51.1565 66.0029 33.025C66.0029 19.1997 57.2771 6.7343 44.2451 2.0881ZM33.1395 62.4888C30.8164 62.4888 28.55 62.2054 26.3969 61.6955V57.8992C26.3969 57.8992 26.3969 57.8992 24.9803 56.4827C23.5638 55.0662 26.4535 52.6864 27.2468 49.6834C29.4566 41.1842 22.0906 40.8442 21.864 38.9744C21.6373 36.878 24.3571 35.2915 26.0002 33.6483C27.6434 32.0051 28.1533 29.4554 27.3034 27.9822C24.6404 23.0527 18.181 25.6591 17.5577 30.8152C17.2178 33.9316 15.348 37.1046 13.7614 38.7478C12.1749 40.3343 9.05858 39.4844 8.20867 37.1613C7.24543 34.5549 10.5884 33.5916 10.0785 30.2486C9.96516 29.342 9.00192 28.8888 7.81204 28.7188L3.90243 28.8321C5.99889 14.5535 18.2943 3.56128 33.1395 3.56128C36.5392 3.56128 39.8822 4.12789 43.1119 5.26111C43.2818 5.31777 43.4518 5.37444 43.5651 5.4311L43.6785 9.56735C43.6785 11.0972 42.7719 12.5137 41.3554 13.137C38.239 14.4969 35.1227 13.7603 33.8195 17.3299C32.7429 20.0496 35.5759 27.3589 39.0323 27.3589C43.3952 27.3589 45.4916 18.5765 46.7948 18.5765C47.6447 18.5765 48.9479 21.2395 50.4778 23.2227C51.4977 24.5825 53.0842 25.3191 54.784 25.3191H57.6737L61.81 26.2824C62.3199 28.4921 62.6033 30.7586 62.6033 33.025C62.6033 49.2867 49.4012 62.4888 33.1395 62.4888Z" fill="#F85757"/>
</svg>
