<svg width="26" height="35" viewBox="0 0 26 35" fill="none" xmlns="http://www.w3.org/2000/svg">
<path d="M9.74062 9.97197C12.0824 9.97197 13.9808 8.0736 13.9808 5.73184C13.9808 3.39007 12.0824 1.4917 9.74062 1.4917C7.39886 1.4917 5.50049 3.39007 5.50049 5.73184C5.50049 8.0736 7.39886 9.97197 9.74062 9.97197Z" stroke="#222223" stroke-width="2" stroke-linecap="round" stroke-linejoin="round"/>
<path d="M9.74066 9.97198V20.5723C9.74066 21.1346 9.96403 21.6739 10.3616 22.0714C10.7592 22.469 11.2985 22.6924 11.8607 22.6924H18.2209C19.3455 22.6924 20.424 23.1391 21.2192 23.9343C22.0143 24.7295 22.4611 25.808 22.4611 26.9325V33.2927H24.5811" stroke="#222223" stroke-width="2" stroke-linecap="round" stroke-linejoin="round"/>
<path d="M18.2209 16.3322H9.74065C8.06341 16.3322 6.42384 16.8295 5.02927 17.7613C3.63469 18.6932 2.54775 20.0176 1.9059 21.5672C1.26405 23.1167 1.09611 24.8218 1.42333 26.4668C1.75054 28.1119 2.55821 29.6229 3.74419 30.8089C4.93018 31.9949 6.44122 32.8025 8.08624 33.1298C9.73125 33.457 11.4363 33.289 12.9859 32.6472C14.5355 32.0053 15.8599 30.9184 16.7917 29.5238C17.7236 28.1292 18.2209 26.4897 18.2209 24.8124V22.6924" stroke="#222223" stroke-width="2" stroke-linecap="round" stroke-linejoin="round"/>
</svg>
