<svg width="17" height="17" viewBox="0 0 17 17" fill="none" xmlns="http://www.w3.org/2000/svg">
<path d="M9.40749 9.8877H16.3171L15.8802 12.5107C15.7266 13.4328 15.2508 14.2704 14.5376 14.8746C13.8243 15.4788 12.9199 15.8103 11.9851 15.8103H5.84276C4.90801 15.8103 4.00355 15.4788 3.2903 14.8746C2.57706 14.2704 2.10131 13.4328 1.9477 12.5107L1.51074 9.8877H4.47202" stroke="#B7B7B7" stroke-width="1.2" stroke-linecap="round" stroke-linejoin="round"/>
<path d="M8.9136 13.8361H4.96523C4.83433 13.8361 4.70879 13.7841 4.61624 13.6915C4.52368 13.599 4.47168 13.4735 4.47168 13.3426V9.88773C4.47168 9.62593 4.57568 9.37486 4.76079 9.18975C4.94591 9.00463 5.19698 8.90063 5.45877 8.90063H8.42005C8.68185 8.90063 8.93292 9.00463 9.11803 9.18975C9.30315 9.37486 9.40714 9.62593 9.40714 9.88773V13.3426C9.40714 13.4735 9.35515 13.599 9.26259 13.6915C9.17003 13.7841 9.0445 13.8361 8.9136 13.8361Z" stroke="#B7B7B7" stroke-width="1.2" stroke-linecap="round" stroke-linejoin="round"/>
<path d="M11.3818 2.97809C11.3818 2.45451 11.5898 1.95236 11.9601 1.58213C12.3303 1.2119 12.8324 1.00391 13.356 1.00391C13.8796 1.00391 14.3818 1.2119 14.752 1.58213C15.1222 1.95236 15.3302 2.45451 15.3302 2.97809V9.88774" stroke="#B7B7B7" stroke-width="1.2" stroke-linecap="round" stroke-linejoin="round"/>
<path d="M9.40723 4.95221C9.40723 4.42863 9.61522 3.92648 9.98545 3.55625C10.3557 3.18602 10.8578 2.97803 11.3814 2.97803C11.905 2.97803 12.4071 3.18602 12.7774 3.55625C13.1476 3.92648 13.3556 4.42863 13.3556 4.95221H9.40723Z" stroke="#B7B7B7" stroke-width="1.2" stroke-linecap="round" stroke-linejoin="round"/>
</svg>
