<svg width="34" height="26" viewBox="0 0 34 26" fill="none" xmlns="http://www.w3.org/2000/svg">
<path d="M32.2137 5.78489L24.5961 8.32411V5.78489C24.5961 4.77473 24.1948 3.80594 23.4805 3.09165C22.7662 2.37736 21.7974 1.97607 20.7873 1.97607H5.55198C4.54182 1.97607 3.57303 2.37736 2.85874 3.09165C2.14445 3.80594 1.74316 4.77473 1.74316 5.78489V21.0202C1.74316 22.0303 2.14445 22.9991 2.85874 23.7134C3.57303 24.4277 4.54182 24.829 5.55198 24.829H20.7873C21.7974 24.829 22.7662 24.4277 23.4805 23.7134C24.1948 22.9991 24.5961 22.0303 24.5961 21.0202V18.481L32.2137 21.0202V5.78489Z" fill="white" stroke="#222223" stroke-width="2" stroke-linecap="round" stroke-linejoin="round"/>
</svg>
