<svg width="34" height="32" viewBox="0 0 34 32" fill="none" xmlns="http://www.w3.org/2000/svg">
<path d="M17.3937 22.1811C18.9201 22.1811 20.1575 20.9437 20.1575 19.4173C20.1575 17.8909 18.9201 16.6535 17.3937 16.6535C15.8673 16.6535 14.6299 17.8909 14.6299 19.4173C14.6299 20.9437 15.8673 22.1811 17.3937 22.1811Z" stroke="#222223" stroke-width="1.84474" stroke-linecap="round" stroke-linejoin="round"/>
<path d="M16.4537 16.8185L14.8173 15.4199C14.1776 14.8703 13.7251 14.135 13.5228 13.3162C13.3205 12.4975 13.3784 11.636 13.6885 10.8518L16.995 2.52542C17.1239 2.16772 17.3782 1.86897 17.7107 1.68467C18.0433 1.50038 18.4314 1.44308 18.8031 1.52342C19.1747 1.60376 19.5045 1.81627 19.7312 2.12148C19.9579 2.42668 20.0661 2.80382 20.0357 3.1828L18.9532 17.1374" stroke="#222223" stroke-width="1.84474" stroke-linecap="round" stroke-linejoin="round"/>
<path d="M15.6131 21.5307L15.2159 23.6497C15.0609 24.4797 14.6502 25.2405 14.0412 25.8254C13.4322 26.4103 12.6555 26.79 11.8199 26.9114L2.96066 28.2094C2.58709 28.2749 2.20243 28.203 1.87773 28.007C1.55302 27.811 1.3102 27.5041 1.19411 27.143C1.07801 26.782 1.09649 26.3911 1.24611 26.0426C1.39574 25.6941 1.66642 25.4115 2.00816 25.247L14.6341 19.2047" stroke="#222223" stroke-width="1.84474" stroke-linecap="round" stroke-linejoin="round"/>
<path d="M20.1141 19.9082L22.1478 19.1921C22.9434 18.9116 23.8069 18.8867 24.6174 19.1209C25.4279 19.3552 26.1449 19.8368 26.6683 20.4985L32.2225 27.5227C32.4653 27.8136 32.5948 28.1824 32.587 28.5613C32.5793 28.9401 32.4349 29.3034 32.1803 29.5842C31.9258 29.8649 31.5784 30.0442 31.2021 30.0889C30.8259 30.1337 30.4461 30.0409 30.1328 29.8277L18.5867 21.9153" stroke="#222223" stroke-width="1.84474" stroke-linecap="round" stroke-linejoin="round"/>
</svg>
