<svg width="31" height="33" viewBox="0 0 31 33" fill="none" xmlns="http://www.w3.org/2000/svg">
<path d="M29.9692 15.3588C29.9664 13.9932 29.5729 12.6569 28.8351 11.5078C28.0972 10.3587 27.0459 9.44478 25.8053 8.87404C25.9159 8.28616 25.8944 7.68102 25.7423 7.10248C25.5901 6.52394 25.3112 5.98649 24.9256 5.52909C24.5401 5.07168 24.0577 4.70577 23.5132 4.45787C22.9688 4.20998 22.376 4.0863 21.7779 4.09582C21.6919 4.09582 21.6114 4.11629 21.5253 4.12176C20.8683 3.16636 19.9887 2.38511 18.9624 1.84538C17.9362 1.30565 16.794 1.02362 15.6345 1.02362C14.4749 1.02362 13.3328 1.30565 12.3065 1.84538C11.2803 2.38511 10.4007 3.16636 9.74361 4.12176C9.6576 4.11629 9.57705 4.09582 9.49104 4.09582C8.89291 4.0863 8.30015 4.20998 7.75572 4.45787C7.2113 4.70577 6.72884 5.07168 6.34331 5.52909C5.95778 5.98649 5.67884 6.52394 5.5267 7.10248C5.37456 7.68102 5.35303 8.28616 5.46368 8.87404C4.09782 9.50251 2.96475 10.5454 2.22545 11.8546C1.48614 13.1638 1.17821 14.6727 1.34539 16.1668C1.51256 17.661 2.14636 19.0645 3.15672 20.1779C4.16708 21.2914 5.50262 22.0581 6.9736 22.3691C7.33449 23.148 7.87043 23.8329 8.53963 24.3706C9.20882 24.9082 9.99317 25.284 10.8315 25.4686C11.6698 25.6532 12.5395 25.6417 13.3726 25.4348C14.2057 25.228 14.9798 24.8315 15.6345 24.2763C16.2894 24.8314 17.0638 25.2277 17.8971 25.4342C18.7304 25.6407 19.6002 25.6519 20.4386 25.4669C21.2769 25.2819 22.0612 24.9057 22.7302 24.3676C23.3992 23.8296 23.9349 23.1442 24.2954 22.365C25.9004 22.0236 27.3397 21.1415 28.3724 19.8662C29.4051 18.5909 29.9688 16.9998 29.9692 15.3588V15.3588Z" stroke="#222223" stroke-width="2" stroke-linecap="round" stroke-linejoin="round"/>
<path d="M15.6345 11.2631V31.7412" stroke="#222223" stroke-width="2" stroke-linecap="round" stroke-linejoin="round"/>
<path d="M15.6345 20.4783C19.7301 20.4783 21.7779 18.4305 21.7779 14.3348" stroke="#222223" stroke-width="2" stroke-linecap="round" stroke-linejoin="round"/>
<path d="M15.6345 16.3827C14.9514 16.4239 14.2674 16.3197 13.6276 16.077C12.9878 15.8343 12.4067 15.4586 11.9229 14.9747C11.439 14.4909 11.0633 13.9098 10.8206 13.27C10.5779 12.6302 10.4737 11.9462 10.5149 11.2631" stroke="#222223" stroke-width="2" stroke-linecap="round" stroke-linejoin="round"/>
</svg>
