<svg width="36" height="33" viewBox="0 0 36 33" fill="none" xmlns="http://www.w3.org/2000/svg">
<path d="M29.5105 16.106C29.5105 23.9889 23.1221 30.3772 15.2393 30.3772C7.35638 30.3772 0.968079 23.9889 0.968079 16.106C0.968079 11.3887 3.25666 7.20856 6.78294 4.60861C9.14936 2.86493 12.0737 1.83481 15.2393 1.83481C19.025 1.83481 22.4683 3.30863 25.0241 5.71657" stroke="#222223" stroke-width="1.92058" stroke-linecap="round" stroke-linejoin="round"/>
<path d="M21.726 22.4605C20.0783 24.1445 17.7793 25.1876 15.2391 25.1876C10.2234 25.1876 6.15741 21.1216 6.15741 16.1059C6.15741 13.1038 7.61307 10.4442 9.85754 8.7887C11.033 7.92205 12.4264 7.33304 13.9417 7.11508" stroke="#222223" stroke-width="1.92058" stroke-linecap="round" stroke-linejoin="round"/>
<path d="M29.5111 15.0367V31.6743V15.0367ZM34.7006 9.49944C34.7006 12.4678 32.3783 14.8758 29.5111 14.8732C26.6438 14.8706 24.3189 12.4678 24.3215 9.49944C24.3241 6.53103 26.6438 1.89938 29.5137 1.89938C32.3835 1.89938 34.7006 6.53103 34.7006 9.49944Z" stroke="#222223" stroke-width="1.92058" stroke-linecap="round" stroke-linejoin="round"/>
</svg>
