<svg width="38" height="34" viewBox="0 0 38 34" fill="none" xmlns="http://www.w3.org/2000/svg">
<path d="M31.4452 16.3786C31.4452 24.5875 24.7928 31.2399 16.584 31.2399C8.37511 31.2399 1.72266 24.5875 1.72266 16.3786C1.72266 11.4663 4.10587 7.11329 7.77796 4.40583C10.2422 2.59005 13.2874 1.51733 16.584 1.51733C20.5262 1.51733 24.1119 3.0521 26.7734 5.55961" stroke="#222223" stroke-width="2" stroke-linecap="round" stroke-linejoin="round"/>
<path d="M23.3393 22.9958C21.6235 24.7494 19.2295 25.8357 16.5841 25.8357C11.3611 25.8357 7.12695 21.6016 7.12695 16.3785C7.12695 13.2522 8.64281 10.4826 10.9801 8.75869C12.2041 7.85621 13.6551 7.24284 15.2331 7.01587" stroke="#222223" stroke-width="2" stroke-linecap="round" stroke-linejoin="round"/>
<path d="M31.4461 15.265V32.5905V15.265ZM36.8502 9.49879C36.8502 12.5899 34.4319 15.0974 31.4461 15.0947C28.4603 15.092 26.0393 12.5899 26.042 9.49879C26.0447 6.40764 28.4603 1.58447 31.4488 1.58447C34.4373 1.58447 36.8502 6.40764 36.8502 9.49879Z" stroke="#222223" stroke-width="2" stroke-linecap="round" stroke-linejoin="round"/>
</svg>
