<svg width="30" height="30" viewBox="0 0 30 30" fill="none" xmlns="http://www.w3.org/2000/svg">
<path d="M28.1908 11.4816C28.1908 10.978 27.9907 10.495 27.6346 10.1388C27.2785 9.78271 26.7955 9.58264 26.2918 9.58264H20.5949V3.88573C20.5949 3.38209 20.3949 2.89908 20.0387 2.54295C19.6826 2.18683 19.1996 1.98676 18.696 1.98676H11.1001C10.5964 1.98676 10.1134 2.18683 9.7573 2.54295C9.40118 2.89908 9.20111 3.38209 9.20111 3.88573V9.58264H3.5042C3.00056 9.58264 2.51755 9.78271 2.16142 10.1388C1.80529 10.495 1.60522 10.978 1.60522 11.4816V19.0775C1.60522 19.5811 1.80529 20.0641 2.16142 20.4203C2.51755 20.7764 3.00056 20.9765 3.5042 20.9765H9.20111V26.6734C9.20111 27.177 9.40118 27.66 9.7573 28.0161C10.1134 28.3723 10.5964 28.5723 11.1001 28.5723H18.696C19.1996 28.5723 19.6826 28.3723 20.0387 28.0161C20.3949 27.66 20.5949 27.177 20.5949 26.6734V20.9765H26.2918C26.7955 20.9765 27.2785 20.7764 27.6346 20.4203C27.9907 20.0641 28.1908 19.5811 28.1908 19.0775V11.4816Z" stroke="#222223" stroke-width="2.1" stroke-linecap="round" stroke-linejoin="round"/>
</svg>
