<svg width="30" height="35" viewBox="0 0 30 35" fill="none" xmlns="http://www.w3.org/2000/svg">
<path d="M22.1496 7.67435H7.52051C6.41594 7.67435 5.52051 8.56978 5.52051 9.67434V33.6302H24.1496V9.67435C24.1496 8.56978 23.2542 7.67435 22.1496 7.67435Z" stroke="#222223" stroke-width="2" stroke-miterlimit="10" stroke-linejoin="round"/>
<path d="M28.1836 4C28.1836 2.34315 26.8405 1 25.1836 1H4.48621C2.82935 1 1.48621 2.34315 1.48621 4V31.6302C1.48621 32.7348 2.38164 33.6302 3.48621 33.6302H26.1836C27.2882 33.6302 28.1836 32.7348 28.1836 31.6302V4Z" stroke="#222223" stroke-width="2" stroke-miterlimit="10" stroke-linejoin="round"/>
<line x1="15.0803" y1="7.81927" x2="15.0803" y2="33.6301" stroke="#222223" stroke-width="2" stroke-miterlimit="10" stroke-linejoin="round"/>
<line x1="10.4736" y1="4.10834" x2="13.8415" y2="4.10834" stroke="#222223" stroke-width="2" stroke-miterlimit="10" stroke-linejoin="round"/>
<line x1="15.8299" y1="4.10834" x2="19.1977" y2="4.10834" stroke="#222223" stroke-width="2" stroke-miterlimit="10" stroke-linejoin="round"/>
</svg>
