<svg width="106" height="104" viewBox="0 0 106 104" fill="none" xmlns="http://www.w3.org/2000/svg">
<path d="M63.5047 92.9227L53.1694 85.588L42.8341 92.9227C41.1671 93.9229 39.1667 92.9227 39.1667 90.9223V46.2472H66.8386V90.5889C67.172 92.9227 64.8383 93.9229 63.5047 92.9227Z" fill="#F85757"/>
<path d="M42.8341 92.9227L53.1694 85.588L53.0027 46.2472H39.1667V90.9223C39.1667 92.9227 41.1671 93.9229 42.8341 92.9227Z" fill="#F85757"/>
<g filter="url(#filter0_d_713_22545)">
<path d="M81.1113 43.4673L79.1232 42.2745C78.7498 42.0878 78.3763 41.7257 78.0852 41.3117C77.4956 40.4732 77.2373 39.3712 77.4211 38.3628C77.4611 38.1436 77.5212 37.9253 77.593 37.6992C77.8035 37.036 78.1111 36.4071 78.4691 35.8104L79.1232 34.7201C80.3161 32.732 78.7257 29.9488 76.34 29.9488H73.9544C72.7616 29.9488 71.9664 29.5512 71.1712 28.756C70.376 27.9608 69.9784 27.1656 69.9784 25.9728V23.5871C69.9784 21.2015 67.1951 19.6111 65.2071 20.8039L63.2191 21.9967C62.7753 22.2186 62.2076 22.3167 61.5853 22.36C60.5627 22.4312 59.4977 22.314 58.6164 21.7904C58.1841 21.5335 57.8628 21.2243 57.6526 20.8039L56.4598 18.8159C55.267 16.8279 52.0862 16.8279 50.8934 18.8159L49.7006 20.8039C49.5138 21.1774 49.1517 21.5509 48.7377 21.842C47.8992 22.4316 46.7972 22.6899 45.7888 22.506C45.4587 22.4458 45.1304 22.3399 44.775 22.2174C44.3483 22.0704 43.9315 21.8954 43.5279 21.6936L40.9533 20.4063C38.9653 19.2135 36.182 20.8039 36.182 23.1896V25.5752C36.182 26.768 35.7844 27.5632 34.9892 28.3584C34.194 29.1536 33.3988 29.5512 32.206 29.5512H29.8204C27.4347 29.5512 25.8443 32.3344 27.0371 34.3225L28.2299 36.3105C28.4519 36.7543 28.5499 37.3219 28.5932 37.9443C28.6644 38.9669 28.5472 40.0319 28.0236 40.9132C27.7667 41.3455 27.4575 41.6668 27.0371 41.8769L25.0491 43.0697C23.0611 44.2626 23.0611 47.4434 25.0491 48.6362L27.0371 49.829C27.4106 50.0158 27.7841 50.3779 28.0752 50.7919C28.6648 51.6304 28.9231 52.7323 28.7393 53.7408C28.6791 54.0709 28.5732 54.3991 28.4506 54.7546C28.3036 55.1812 28.1287 55.598 27.9268 56.0017L27.0371 57.7811C25.8443 59.7691 27.4347 62.5523 29.8204 62.5523H32.206C33.3988 62.5523 34.194 62.95 34.9892 63.7452C35.7844 64.5404 36.182 65.3356 36.182 66.5284V68.914C36.182 71.2996 38.9653 72.8901 40.9533 71.6972L42.9413 70.5044C43.3851 70.2825 43.9528 70.1845 44.5751 70.1411C45.5977 70.0699 46.6627 70.1872 47.544 70.7108C47.9763 70.9677 48.2976 71.2769 48.5078 71.6972L49.7006 73.6853C50.8934 75.6733 54.0742 75.6733 55.267 73.6853L56.4598 71.6972C56.6466 71.3238 57.0087 70.9503 57.4227 70.6592C58.2612 70.0696 59.3631 69.8113 60.3716 69.9951C60.5907 70.0351 60.8091 70.0952 61.0351 70.1669C61.6984 70.3774 62.3273 70.685 62.924 71.0431L64.0143 71.6972C66.0023 72.8901 68.7856 71.2996 68.7856 68.914V66.5284C68.7856 65.3356 69.1832 64.5404 69.9784 63.7452C70.7736 62.95 71.5688 62.5523 72.7616 62.5523H75.1472C77.5328 62.5523 79.1233 59.7691 77.9304 57.7811L76.7376 55.7931C76.5157 55.3493 76.4177 54.7816 76.3743 54.1592C76.3032 53.1367 76.4204 52.0716 76.944 51.1904C77.2009 50.758 77.5101 50.4368 77.9304 50.2266L79.1737 49.4807C79.6692 49.1834 80.2045 48.9548 80.7042 48.6644C83.083 47.282 82.9195 44.5523 81.1113 43.4673Z" fill="white"/>
</g>
<defs>
<filter id="filter0_d_713_22545" x="0.907831" y="0.635215" width="104.222" height="103.152" filterUnits="userSpaceOnUse" color-interpolation-filters="sRGB">
<feFlood flood-opacity="0" result="BackgroundImageFix"/>
<feColorMatrix in="SourceAlpha" type="matrix" values="0 0 0 0 0 0 0 0 0 0 0 0 0 0 0 0 0 0 127 0" result="hardAlpha"/>
<feOffset dy="5.9606"/>
<feGaussianBlur stdDeviation="11.3251"/>
<feComposite in2="hardAlpha" operator="out"/>
<feColorMatrix type="matrix" values="0 0 0 0 0.132391 0 0 0 0 0.13228 0 0 0 0 0.137836 0 0 0 0.07 0"/>
<feBlend mode="normal" in2="BackgroundImageFix" result="effect1_dropShadow_713_22545"/>
<feBlend mode="normal" in="SourceGraphic" in2="effect1_dropShadow_713_22545" result="shape"/>
</filter>
</defs>
</svg>
