<svg width="70" height="70" viewBox="0 0 24 25" fill="none" xmlns="http://www.w3.org/2000/svg">
<path d="M1.17505 12.3606C1.17505 12.3606 3.91791 6.06229 12 6.06229C20.0822 6.06229 22.825 12.3606 22.825 12.3606C22.825 12.3606 20.0822 18.6589 12 18.6589C3.91791 18.6589 1.17505 12.3606 1.17505 12.3606Z" stroke="#222223" stroke-width="1" stroke-miterlimit="10"/>
<path d="M11.9995 9.99875C11.3731 9.99875 10.7724 10.2476 10.3295 10.6905C9.88654 11.1335 9.63771 11.7342 9.63771 12.3606C9.63771 12.987 9.88654 13.5878 10.3295 14.0307C10.7724 14.4736 11.3731 14.7225 11.9995 14.7225C12.6259 14.7225 13.2267 14.4736 13.6696 14.0307C14.1125 13.5878 14.3613 12.987 14.3613 12.3606C14.3613 11.7342 14.1125 11.1335 13.6696 10.6905C13.2267 10.2476 12.6259 9.99875 11.9995 9.99875V9.99875Z" stroke="#222223" stroke-width="1" stroke-miterlimit="10"/>
</svg>
