<svg width="334" height="243" viewBox="0 0 334 243" fill="none" xmlns="http://www.w3.org/2000/svg">
<circle opacity="0.09" cx="166.898" cy="131.592" r="110.65" fill="#fb8722"/>
<g filter="url(#filter0_d_721_15361)">
<rect x="19.0576" y="141.878" width="295.681" height="62.8908" rx="8" fill="#FF0000" fill-opacity="0.01" shape-rendering="crispEdges"/>
</g>
<rect x="19.0576" y="141.878" width="295.681" height="62.8908" rx="8" fill="white"/>
<path d="M55.7686 180.354L62.7988 187.384" stroke="#fb8722" stroke-width="5" stroke-linecap="round" stroke-linejoin="round"/>
<path d="M34.6777 171.315C34.6777 172.898 34.9895 174.465 35.5951 175.927C36.2008 177.389 37.0885 178.718 38.2077 179.837C39.3268 180.956 40.6554 181.844 42.1176 182.449C43.5798 183.055 45.147 183.367 46.7297 183.367C48.3123 183.367 49.8795 183.055 51.3417 182.449C52.8039 181.844 54.1325 180.956 55.2516 179.837C56.3708 178.718 57.2585 177.389 57.8642 175.927C58.4698 174.465 58.7816 172.898 58.7816 171.315C58.7816 168.118 57.5118 165.053 55.2516 162.793C52.9915 160.533 49.926 159.263 46.7297 159.263C43.5333 159.263 40.4678 160.533 38.2077 162.793C35.9475 165.053 34.6777 168.118 34.6777 171.315V171.315Z" stroke="#fb8722" stroke-width="5" stroke-linecap="round" stroke-linejoin="round"/>
<rect x="79.9795" y="169.386" width="185.726" height="7.87552" rx="3.93776" fill="#E9E9E9"/>
<g filter="url(#filter1_dd_721_15361)">
<rect x="130.862" y="14.5545" width="72.0698" height="85.7019" rx="8" fill="#FF0000" fill-opacity="0.01" shape-rendering="crispEdges"/>
</g>
<rect x="130.862" y="14.5545" width="72.0698" height="85.7019" rx="8" fill="white"/>
<path opacity="0.7" d="M183.904 45.6435V68.1272C183.904 69.2317 183.008 70.1272 181.904 70.1272H151.891C150.786 70.1272 149.891 69.2317 149.891 68.1272V45.6435L166.897 28.0016L183.904 45.6435Z" fill="#E9E9E9"/>
<path d="M155.315 70.127V51.9702C155.315 51.4179 155.763 50.9702 156.315 50.9702H163.747C164.299 50.9702 164.747 51.4179 164.747 51.9702V70.127H155.315ZM167.609 24.9105C167.217 24.5139 166.577 24.5139 166.186 24.9105L144.92 46.4513C144.533 46.8425 144.536 47.4722 144.924 47.8609L146.384 49.3207C146.78 49.7166 147.424 49.7104 147.812 49.3069L166.897 29.4676L185.982 49.3069C186.371 49.7104 187.014 49.7166 187.41 49.3207L188.869 47.8624C189.258 47.4731 189.259 46.8423 188.872 46.4513L183.904 41.4406V29.0015C183.904 28.4492 183.456 28.0015 182.904 28.0015H179.235C178.683 28.0015 178.235 28.4492 178.235 29.0015V35.674L167.609 24.9105Z" fill="#fb8722"/>
<path opacity="0.2" d="M160.516 44.3239C159.894 44.3239 159.419 43.7543 159.61 43.1618C161.85 36.208 171.896 36.208 174.135 43.1618C174.326 43.7543 173.852 44.3239 173.229 44.3239H160.516Z" fill="#8D8D91"/>
<path opacity="0.2" d="M169.046 51.9703C169.046 51.418 169.494 50.9703 170.046 50.9703H177.478C178.03 50.9703 178.478 51.418 178.478 51.9703V59.5487C178.478 60.101 178.03 60.5487 177.478 60.5487H170.046C169.494 60.5487 169.046 60.101 169.046 59.5487V51.9703Z" fill="#8D8D91"/>
<rect opacity="0.4" x="139.699" y="78.7448" width="54.3949" height="6.37352" rx="3.18676" fill="#B7B7B7"/>
<path d="M198.265 108.834C207.946 108.834 215.793 100.987 215.793 91.3071C215.793 81.6268 207.946 73.7798 198.265 73.7798C188.585 73.7798 180.738 81.6268 180.738 91.3071C180.738 100.987 188.585 108.834 198.265 108.834Z" fill="#fb8722"/>
<path d="M195.126 87.846L197.515 83.0353C197.585 82.896 197.692 82.7789 197.824 82.6971C197.957 82.6153 198.109 82.5719 198.265 82.5719C198.42 82.5719 198.573 82.6153 198.705 82.6971C198.838 82.7789 198.945 82.896 199.014 83.0353L201.403 87.846L206.743 88.6221C206.897 88.6435 207.042 88.7077 207.162 88.8075C207.281 88.9073 207.37 89.0386 207.418 89.1864C207.466 89.3343 207.472 89.4927 207.434 89.6436C207.397 89.7945 207.318 89.9319 207.206 90.04L203.342 93.7823L204.254 99.0694C204.371 99.7479 203.654 100.265 203.041 99.9447L198.265 97.4474L193.488 99.9447C192.876 100.266 192.158 99.7479 192.275 99.0684L193.187 93.7814L189.324 90.039C189.212 89.9309 189.134 89.7937 189.096 89.643C189.059 89.4924 189.065 89.3343 189.113 89.1868C189.161 89.0393 189.25 88.9083 189.369 88.8086C189.488 88.7089 189.632 88.6446 189.786 88.623L195.126 87.846Z" fill="white"/>
<g filter="url(#filter2_dd_721_15361)">
<rect x="232.676" y="42.2674" width="72.0698" height="85.7019" rx="8" fill="#FF0000" fill-opacity="0.01" shape-rendering="crispEdges"/>
</g>
<rect x="232.676" y="42.2674" width="72.0698" height="85.7019" rx="8" fill="white"/>
<path opacity="0.6" d="M286.351 77.1601V100.32C286.351 101.425 285.456 102.32 284.351 102.32H253.398C252.294 102.32 251.398 101.425 251.398 100.32V77.1601L268.875 59.0309L286.351 77.1601Z" fill="#E9E9E9"/>
<path d="M256.972 102.32V83.634C256.972 83.0817 257.42 82.634 257.972 82.634H265.664C266.217 82.634 266.664 83.0817 266.664 83.634V102.32H256.972ZM269.586 55.8345C269.194 55.4379 268.554 55.4379 268.162 55.8345L246.27 78.0098C245.884 78.401 245.886 79.0307 246.275 79.4194L247.814 80.9589C248.21 81.3547 248.854 81.3485 249.242 80.945L268.874 60.5374L288.506 80.945C288.894 81.3485 289.538 81.3547 289.934 80.9589L291.472 79.4209C291.861 79.0316 291.863 78.4008 291.475 78.0098L286.35 72.8412V60.0308C286.35 59.4785 285.903 59.0308 285.35 59.0308H281.525C280.973 59.0308 280.525 59.4785 280.525 60.0308V66.9153L269.586 55.8345Z" fill="#B7B7B7"/>
<path opacity="0.31" d="M262.285 75.8041C261.662 75.8041 261.188 75.2345 261.376 74.6413C263.661 67.4535 274.038 67.4535 276.323 74.6413C276.512 75.2345 276.037 75.8041 275.415 75.8041H262.285Z" fill="#B7B7B7"/>
<path opacity="0.31" d="M271.083 83.634C271.083 83.0817 271.531 82.634 272.083 82.634H279.775C280.328 82.634 280.775 83.0817 280.775 83.634V91.477C280.775 92.0293 280.328 92.477 279.775 92.477H272.083C271.531 92.477 271.083 92.0293 271.083 91.477V83.634Z" fill="#B7B7B7"/>
<rect opacity="0.3" x="241.84" y="109.55" width="54.3949" height="6.37352" rx="3.18676" fill="#B7B7B7"/>
<g filter="url(#filter3_dd_721_15361)">
<rect x="29.0498" y="42.2674" width="72.0698" height="85.7019" rx="8" fill="#FF0000" fill-opacity="0.01" shape-rendering="crispEdges"/>
</g>
<rect x="29.0498" y="42.2674" width="72.0698" height="85.7019" rx="8" fill="white"/>
<path opacity="0.6" d="M82.5348 75.1337V98.2564C82.5348 99.3609 81.6393 100.256 80.5348 100.256H49.6338C48.5292 100.256 47.6338 99.3609 47.6338 98.2564V75.1337L65.0843 57.0313L82.5348 75.1337Z" fill="#E9E9E9"/>
<path d="M53.2003 100.256V81.5995C53.2003 81.0472 53.648 80.5995 54.2003 80.5995H61.8783C62.4306 80.5995 62.8783 81.0472 62.8783 81.5995V100.256H53.2003ZM65.7963 53.8408C65.4048 53.4442 64.7646 53.4442 64.3731 53.8408L42.5154 75.9811C42.1292 76.3723 42.1312 77.002 42.52 77.3908L44.055 78.9258C44.4509 79.3217 45.0946 79.3154 45.4828 78.912L65.0847 58.5357L84.6866 78.912C85.0747 79.3154 85.7185 79.3217 86.1144 78.9258L87.6479 77.3923C88.0373 77.0029 88.0386 76.3721 87.651 75.9811L82.5352 70.8212V58.0313C82.5352 57.479 82.0875 57.0313 81.5352 57.0313H77.7183C77.1661 57.0313 76.7183 57.479 76.7183 58.0313V64.9041L65.7963 53.8408Z" fill="#B7B7B7"/>
<path opacity="0.31" d="M58.5054 73.7798C57.883 73.7798 57.4085 73.2102 57.5972 72.617C59.8794 65.4421 70.2385 65.4421 72.5207 72.617C72.7094 73.2102 72.2349 73.7798 71.6124 73.7798H58.5054Z" fill="#B7B7B7"/>
<path opacity="0.31" d="M67.29 81.5995C67.29 81.0472 67.7378 80.5995 68.29 80.5995H75.968C76.5203 80.5995 76.968 81.0472 76.968 81.5995V89.4279C76.968 89.9802 76.5203 90.4279 75.968 90.4279H68.29C67.7378 90.4279 67.29 89.9802 67.29 89.4279V81.5995Z" fill="#B7B7B7"/>
<rect opacity="0.3" x="37.8867" y="109.55" width="54.3949" height="6.37352" rx="3.18676" fill="#B7B7B7"/>
<defs>
<filter id="filter0_d_721_15361" x="0.0576172" y="127.878" width="333.681" height="100.891" filterUnits="userSpaceOnUse" color-interpolation-filters="sRGB">
<feFlood flood-opacity="0" result="BackgroundImageFix"/>
<feColorMatrix in="SourceAlpha" type="matrix" values="0 0 0 0 0 0 0 0 0 0 0 0 0 0 0 0 0 0 127 0" result="hardAlpha"/>
<feOffset dy="5"/>
<feGaussianBlur stdDeviation="9.5"/>
<feComposite in2="hardAlpha" operator="out"/>
<feColorMatrix type="matrix" values="0 0 0 0 0.132391 0 0 0 0 0.13228 0 0 0 0 0.137836 0 0 0 0.07 0"/>
<feBlend mode="normal" in2="BackgroundImageFix" result="effect1_dropShadow_721_15361"/>
<feBlend mode="normal" in="SourceGraphic" in2="effect1_dropShadow_721_15361" result="shape"/>
</filter>
<filter id="filter1_dd_721_15361" x="111.862" y="0.554504" width="110.069" height="123.702" filterUnits="userSpaceOnUse" color-interpolation-filters="sRGB">
<feFlood flood-opacity="0" result="BackgroundImageFix"/>
<feColorMatrix in="SourceAlpha" type="matrix" values="0 0 0 0 0 0 0 0 0 0 0 0 0 0 0 0 0 0 127 0" result="hardAlpha"/>
<feOffset dy="5"/>
<feGaussianBlur stdDeviation="9.5"/>
<feComposite in2="hardAlpha" operator="out"/>
<feColorMatrix type="matrix" values="0 0 0 0 0.132391 0 0 0 0 0.13228 0 0 0 0 0.137836 0 0 0 0.07 0"/>
<feBlend mode="normal" in2="BackgroundImageFix" result="effect1_dropShadow_721_15361"/>
<feColorMatrix in="SourceAlpha" type="matrix" values="0 0 0 0 0 0 0 0 0 0 0 0 0 0 0 0 0 0 127 0" result="hardAlpha"/>
<feOffset/>
<feGaussianBlur stdDeviation="2.5"/>
<feComposite in2="hardAlpha" operator="out"/>
<feColorMatrix type="matrix" values="0 0 0 0 0 0 0 0 0 0 0 0 0 0 0 0 0 0 0.05 0"/>
<feBlend mode="normal" in2="effect1_dropShadow_721_15361" result="effect2_dropShadow_721_15361"/>
<feBlend mode="normal" in="SourceGraphic" in2="effect2_dropShadow_721_15361" result="shape"/>
</filter>
<filter id="filter2_dd_721_15361" x="218.676" y="32.2674" width="100.07" height="113.702" filterUnits="userSpaceOnUse" color-interpolation-filters="sRGB">
<feFlood flood-opacity="0" result="BackgroundImageFix"/>
<feColorMatrix in="SourceAlpha" type="matrix" values="0 0 0 0 0 0 0 0 0 0 0 0 0 0 0 0 0 0 127 0" result="hardAlpha"/>
<feOffset dy="4"/>
<feGaussianBlur stdDeviation="7"/>
<feComposite in2="hardAlpha" operator="out"/>
<feColorMatrix type="matrix" values="0 0 0 0 0.132391 0 0 0 0 0.13228 0 0 0 0 0.137836 0 0 0 0.04 0"/>
<feBlend mode="normal" in2="BackgroundImageFix" result="effect1_dropShadow_721_15361"/>
<feColorMatrix in="SourceAlpha" type="matrix" values="0 0 0 0 0 0 0 0 0 0 0 0 0 0 0 0 0 0 127 0" result="hardAlpha"/>
<feOffset/>
<feGaussianBlur stdDeviation="3"/>
<feComposite in2="hardAlpha" operator="out"/>
<feColorMatrix type="matrix" values="0 0 0 0 0 0 0 0 0 0 0 0 0 0 0 0 0 0 0.04 0"/>
<feBlend mode="normal" in2="effect1_dropShadow_721_15361" result="effect2_dropShadow_721_15361"/>
<feBlend mode="normal" in="SourceGraphic" in2="effect2_dropShadow_721_15361" result="shape"/>
</filter>
<filter id="filter3_dd_721_15361" x="15.0498" y="32.2674" width="100.069" height="113.702" filterUnits="userSpaceOnUse" color-interpolation-filters="sRGB">
<feFlood flood-opacity="0" result="BackgroundImageFix"/>
<feColorMatrix in="SourceAlpha" type="matrix" values="0 0 0 0 0 0 0 0 0 0 0 0 0 0 0 0 0 0 127 0" result="hardAlpha"/>
<feOffset dy="4"/>
<feGaussianBlur stdDeviation="7"/>
<feComposite in2="hardAlpha" operator="out"/>
<feColorMatrix type="matrix" values="0 0 0 0 0.132391 0 0 0 0 0.13228 0 0 0 0 0.137836 0 0 0 0.04 0"/>
<feBlend mode="normal" in2="BackgroundImageFix" result="effect1_dropShadow_721_15361"/>
<feColorMatrix in="SourceAlpha" type="matrix" values="0 0 0 0 0 0 0 0 0 0 0 0 0 0 0 0 0 0 127 0" result="hardAlpha"/>
<feOffset/>
<feGaussianBlur stdDeviation="3"/>
<feComposite in2="hardAlpha" operator="out"/>
<feColorMatrix type="matrix" values="0 0 0 0 0 0 0 0 0 0 0 0 0 0 0 0 0 0 0.04 0"/>
<feBlend mode="normal" in2="effect1_dropShadow_721_15361" result="effect2_dropShadow_721_15361"/>
<feBlend mode="normal" in="SourceGraphic" in2="effect2_dropShadow_721_15361" result="shape"/>
</filter>
</defs>
</svg>
