<svg width="34" height="32" viewBox="0 0 34 32" fill="none" xmlns="http://www.w3.org/2000/svg">
<path d="M17.2168 7.12176V4.28842H11.0293V7.12176C10.0914 7.6439 9.31168 8.39624 8.76861 9.30318C8.22555 10.2101 7.93823 11.2397 7.93555 12.2884V28.2884C7.93555 28.8189 8.15285 29.3276 8.53964 29.7026C8.92643 30.0777 9.45104 30.2884 9.99805 30.2884H18.248C18.7951 30.2884 19.3197 30.0777 19.7065 29.7026C20.0932 29.3276 20.3105 28.8189 20.3105 28.2884V12.2884C20.3079 11.2397 20.0205 10.2101 19.4775 9.30318C18.9344 8.39624 18.1547 7.6439 17.2168 7.12176Z" stroke="#222223" stroke-width="2" stroke-linecap="round" stroke-linejoin="round"/>
<path d="M32.6855 7.28842L22.373 6.28842V2.28842L32.6855 1.28842V7.28842Z" stroke="#222223" stroke-width="2" stroke-linecap="round" stroke-linejoin="round"/>
<path d="M22.373 4.28842H9.99805C7.81001 4.28842 5.71159 5.13128 4.16442 6.63157C2.61724 8.13186 1.74805 10.1667 1.74805 12.2884V26.2884" stroke="#222223" stroke-width="2" stroke-linecap="round" stroke-linejoin="round"/>
<path d="M12.0605 4.28842L7.93555 1.28842" stroke="#222223" stroke-width="2" stroke-linecap="round" stroke-linejoin="round"/>
<path d="M20.3105 14.2884H14.123V24.2884H20.3105" stroke="#222223" stroke-width="2" stroke-linecap="round" stroke-linejoin="round"/>
</svg>
