<svg width="40" height="27" viewBox="0 0 40 27" fill="none" xmlns="http://www.w3.org/2000/svg">
<path d="M36.2993 8.93768C35.6305 8.93768 34.989 9.20339 34.516 9.67635C34.0431 10.1493 33.7774 10.7908 33.7774 11.4596V13.9816C33.7774 14.316 33.6445 14.6368 33.408 14.8733C33.1716 15.1097 32.8508 15.2426 32.5164 15.2426H7.29674C6.9623 15.2426 6.64157 15.1097 6.40509 14.8733C6.16861 14.6368 6.03575 14.316 6.03575 13.9816V11.4596C6.03575 10.7908 5.77005 10.1493 5.29709 9.67635C4.82413 9.20339 4.18265 8.93768 3.51379 8.93768C2.84492 8.93768 2.20345 9.20339 1.73049 9.67635C1.25753 10.1493 0.991821 10.7908 0.991821 11.4596V16.5036C0.991821 17.8413 1.52323 19.1243 2.46915 20.0702C3.41508 21.0161 4.69802 21.5475 6.03575 21.5475H33.7774C35.1151 21.5475 36.3981 21.0161 37.344 20.0702C38.2899 19.1243 38.8213 17.8413 38.8213 16.5036V11.4596C38.8213 10.7908 38.5556 10.1493 38.0826 9.67635C37.6097 9.20339 36.9682 8.93768 36.2993 8.93768Z" stroke="#222223" stroke-width="2" stroke-linecap="round" stroke-linejoin="round"/>
<path d="M6.03564 21.5475V25.3305" stroke="#222223" stroke-width="2" stroke-linecap="round" stroke-linejoin="round"/>
<path d="M33.7773 21.5475V25.3305" stroke="#222223" stroke-width="2" stroke-linecap="round" stroke-linejoin="round"/>
<path d="M3.51367 8.93772C3.51367 6.93112 4.31079 5.00671 5.72967 3.58783C7.14855 2.16895 9.07297 1.37183 11.0796 1.37183H28.7333C30.7399 1.37183 32.6643 2.16895 34.0832 3.58783C35.5021 5.00671 36.2992 6.93112 36.2992 8.93772" stroke="#222223" stroke-width="2" stroke-linecap="round" stroke-linejoin="round"/>
<path d="M19.9065 15.2426V1.37183" stroke="#222223" stroke-width="2" stroke-linecap="round" stroke-linejoin="round"/>
</svg>
