<svg width="35" height="34" viewBox="0 0 35 34" fill="none" xmlns="http://www.w3.org/2000/svg">
<path d="M1.12109 32.4785H33.4505" stroke="#222223" stroke-width="2" stroke-linecap="round" stroke-linejoin="round"/>
<path d="M3.27637 13.0808H31.2952V32.4785H3.27637V13.0808Z" stroke="#222223" stroke-width="2" stroke-linecap="round" stroke-linejoin="round"/>
<path d="M33.4504 10.4946C33.4497 10.2988 33.3959 10.1069 33.2946 9.93939C33.1934 9.77186 33.0486 9.63497 32.8756 9.54335L17.7885 1.49692C17.6323 1.41413 17.4582 1.37085 17.2813 1.37085C17.1045 1.37085 16.9304 1.41413 16.7741 1.49692L1.68705 9.54335C1.51408 9.63497 1.36924 9.77186 1.26801 9.93939C1.16678 10.1069 1.11296 10.2988 1.1123 10.4946V12.0033C1.1123 12.2891 1.22584 12.5632 1.42794 12.7653C1.63004 12.9674 1.90414 13.0809 2.18995 13.0809H32.3641C32.6499 13.0809 32.924 12.9674 33.1261 12.7653C33.3282 12.5632 33.4417 12.2891 33.4417 12.0033L33.4504 10.4946Z" stroke="#222223" stroke-width="2" stroke-linecap="round" stroke-linejoin="round"/>
<path d="M7.58691 17.3914H26.9846V32.4784H7.58691V17.3914Z" stroke="#222223" stroke-width="2" stroke-linecap="round" stroke-linejoin="round"/>
<path d="M11.8975 23.8572H22.6739" stroke="#222223" stroke-width="2" stroke-linecap="round" stroke-linejoin="round"/>
<path d="M11.8975 28.168H22.6739" stroke="#222223" stroke-width="2" stroke-linecap="round" stroke-linejoin="round"/>
</svg>
