<svg width="26" height="35" viewBox="0 0 26 35" fill="none" xmlns="http://www.w3.org/2000/svg">
<path d="M12.5195 18.6138V33.564" stroke="#222223" stroke-width="2" stroke-linecap="round" stroke-linejoin="round"/>
<path d="M1.01953 22.0637C2.52976 22.0637 4.0252 22.3612 5.42047 22.9391C6.81574 23.5171 8.08351 24.3642 9.1514 25.4321C10.2193 26.4999 11.0664 27.7677 11.6443 29.163C12.2223 30.5583 12.5197 32.0537 12.5197 33.5639C9.46969 33.5639 6.54457 32.3523 4.38786 30.1956C2.23116 28.0389 1.01953 25.1138 1.01953 22.0637Z" stroke="#222223" stroke-width="2" stroke-linecap="round" stroke-linejoin="round"/>
<path d="M24.0197 22.0637C20.9697 22.0637 18.0446 23.2753 15.8879 25.4321C13.7312 27.5888 12.5195 30.5139 12.5195 33.5639C15.5696 33.5639 18.4947 32.3523 20.6514 30.1956C22.8081 28.0389 24.0197 25.1138 24.0197 22.0637Z" stroke="#222223" stroke-width="2" stroke-linecap="round" stroke-linejoin="round"/>
<path d="M2.28906 8.38319V3.3921C2.28945 3.17557 2.35853 2.96474 2.48637 2.78997C2.6142 2.6152 2.79419 2.4855 3.00044 2.41953C3.20668 2.35356 3.42853 2.35473 3.63406 2.42288C3.83959 2.49102 4.0182 2.62262 4.14418 2.79874L8.42732 7.36015L11.6315 1.75387C11.7212 1.59804 11.8504 1.4686 12.006 1.3786C12.1617 1.2886 12.3383 1.24121 12.5181 1.24121C12.6979 1.24121 12.8746 1.2886 13.0302 1.3786C13.1859 1.4686 13.3151 1.59804 13.4048 1.75387L16.6117 7.36015L20.8948 2.79874C21.0209 2.62253 21.1996 2.49089 21.4053 2.42277C21.6109 2.35466 21.8329 2.3536 22.0392 2.41974C22.2455 2.48588 22.4255 2.61581 22.5532 2.7908C22.681 2.96579 22.7498 3.17682 22.7499 3.39347V8.38319C22.7499 11.0965 21.6721 13.6986 19.7535 15.6172C17.8349 17.5358 15.2328 18.6136 12.5195 18.6136C9.80622 18.6136 7.20407 17.5358 5.28549 15.6172C3.36691 13.6986 2.28906 11.0965 2.28906 8.38319Z" stroke="#222223" stroke-width="2" stroke-linecap="round" stroke-linejoin="round"/>
</svg>
