<svg width="24" height="23" viewBox="0 0 24 23" fill="none" xmlns="http://www.w3.org/2000/svg">
<path d="M16.8955 16.6885L22.084 21.8769" stroke="#8D8D91" stroke-width="2.2" stroke-linecap="round" stroke-linejoin="round"/>
<path d="M1.33008 10.0173C1.33008 11.1853 1.56014 12.3419 2.00713 13.4211C2.45412 14.5002 3.10929 15.4807 3.93522 16.3067C4.76115 17.1326 5.74167 17.7878 6.8208 18.2347C7.89993 18.6817 9.05653 18.9118 10.2246 18.9118C11.3926 18.9118 12.5492 18.6817 13.6284 18.2347C14.7075 17.7878 15.688 17.1326 16.5139 16.3067C17.3399 15.4807 17.995 14.5002 18.442 13.4211C18.889 12.3419 19.1191 11.1853 19.1191 10.0173C19.1191 7.65833 18.182 5.39598 16.5139 3.72794C14.8459 2.0599 12.5835 1.1228 10.2246 1.1228C7.86561 1.1228 5.60326 2.0599 3.93522 3.72794C2.26717 5.39598 1.33008 7.65833 1.33008 10.0173V10.0173Z" stroke="#8D8D91" stroke-width="2.2" stroke-linecap="round" stroke-linejoin="round"/>
</svg>
