<svg width="24" height="34" viewBox="0 0 24 34" fill="none" xmlns="http://www.w3.org/2000/svg">
<path d="M19.6476 13.2108C19.8785 13.2084 20.107 13.2574 20.3166 13.3543C20.5262 13.4511 20.7116 13.5933 20.8595 13.7706C21.0073 13.9479 21.1139 14.1559 21.1715 14.3794C21.2291 14.603 21.2363 14.8366 21.1925 15.0633C20.7281 17.1717 19.5577 19.0583 17.8749 20.4108C16.1921 21.7633 14.0979 22.5006 11.939 22.5006C9.78002 22.5006 7.68581 21.7633 6.00303 20.4108C4.32024 19.0583 3.14978 17.1717 2.68541 15.0633C2.64106 14.8363 2.64791 14.6023 2.70546 14.3783C2.76301 14.1543 2.86981 13.946 3.01809 13.7685C3.16636 13.591 3.35237 13.4488 3.56256 13.3524C3.77274 13.2559 4.0018 13.2075 4.23305 13.2108H19.6476Z" stroke="#222223" stroke-width="2" stroke-linecap="round" stroke-linejoin="round"/>
<path d="M22.2224 32.7794L17.7361 20.526" stroke="#222223" stroke-width="2" stroke-linecap="round" stroke-linejoin="round"/>
<path d="M1.6239 32.7794L6.11026 20.526" stroke="#222223" stroke-width="2" stroke-linecap="round" stroke-linejoin="round"/>
<path d="M20.7146 28.6597H3.13173" stroke="#222223" stroke-width="2" stroke-linecap="round" stroke-linejoin="round"/>
<path d="M4.94713 1.88162L4.09572 3.01179C3.75585 3.45747 3.60112 4.01713 3.6638 4.5741C3.72648 5.13107 4.00173 5.64234 4.43217 6.00133C4.86168 6.36108 5.13592 6.87261 5.19782 7.42945C5.25972 7.98629 5.10451 8.54556 4.76449 8.99086L4.54202 9.28748" stroke="#222223" stroke-width="2" stroke-linecap="round" stroke-linejoin="round"/>
<path d="M12.6867 1.88162L11.8394 3.01179C11.4994 3.45709 11.3442 4.01636 11.4061 4.5732C11.468 5.13004 11.7422 5.64157 12.1717 6.00133C12.6017 6.36069 12.8765 6.87216 12.9386 7.42911C13.0008 7.98606 12.8456 8.54552 12.5054 8.99086L12.283 9.28748" stroke="#222223" stroke-width="2" stroke-linecap="round" stroke-linejoin="round"/>
<path d="M19.8962 1.88162L19.0489 3.01179C18.7089 3.45709 18.5537 4.01636 18.6155 4.5732C18.6774 5.13004 18.9517 5.64157 19.3812 6.00133C19.8112 6.36069 20.0859 6.87216 20.1481 7.42911C20.2103 7.98606 20.0551 8.54552 19.7149 8.99086L19.4924 9.28748" stroke="#222223" stroke-width="2" stroke-linecap="round" stroke-linejoin="round"/>
</svg>
