<svg width="35" height="35" viewBox="0 0 35 35" fill="none" xmlns="http://www.w3.org/2000/svg">
<path d="M1.06691 14.6869C1.06514 15.1496 1.21451 15.6003 1.49234 15.9704C1.77016 16.3405 2.16123 16.6097 2.60609 16.7372C6.45047 17.8364 16.6751 20.5574 23.4925 20.5574C26.0415 20.5574 28.4861 19.5448 30.2885 17.7424C32.0909 15.94 33.1034 13.4954 33.1034 10.9464C33.1034 8.39745 32.0909 5.95287 30.2885 4.15046C28.4861 2.34806 26.0415 1.33548 23.4925 1.33548C16.6751 1.33548 6.45474 4.05645 2.60609 5.15423C2.16123 5.28219 1.77026 5.55176 1.49248 5.92204C1.21471 6.29233 1.06529 6.74311 1.06691 7.206V14.6869Z" stroke="#222223" stroke-width="2" stroke-linecap="round" stroke-linejoin="round"/>
<path d="M24.5604 1.39813V20.4948" stroke="#222223" stroke-width="2" stroke-linecap="round" stroke-linejoin="round"/>
<path d="M23.4926 20.5574C22.1932 20.5485 20.8953 20.471 19.6041 20.3253L18.6814 28.6292C18.6152 29.2259 18.6755 29.8299 18.8584 30.4017C19.0413 30.9736 19.3427 31.5005 19.7429 31.948C20.1431 32.3955 20.6332 32.7536 21.1812 32.999C21.7291 33.2444 22.3227 33.3715 22.9231 33.372H24.5605C25.6934 33.372 26.7798 32.922 27.5809 32.1209C28.382 31.3198 28.832 30.2334 28.832 29.1005V18.9385C27.2527 19.9969 25.3938 20.5605 23.4926 20.5574Z" stroke="#222223" stroke-width="2" stroke-linecap="round" stroke-linejoin="round"/>
<path d="M5.3385 4.4053V17.4876" stroke="#222223" stroke-width="2" stroke-linecap="round" stroke-linejoin="round"/>
</svg>
