<svg width="34" height="33" viewBox="0 0 34 33" fill="none" xmlns="http://www.w3.org/2000/svg">
<path d="M14.1507 1.25546C13.7752 1.63094 13.4773 2.07672 13.274 2.56734C13.0708 3.05795 12.9662 3.5838 12.9662 4.11486C12.9662 4.64591 13.0708 5.17176 13.274 5.66238C13.4773 6.15299 13.7752 6.59877 14.1507 6.97425C14.9088 7.73251 15.3346 8.76079 15.3346 9.83297C15.3346 10.9051 14.9088 11.9334 14.1507 12.6917" stroke="#222223" stroke-width="2" stroke-linecap="round" stroke-linejoin="round"/>
<path d="M19.5515 1.25546C19.1759 1.63094 18.878 2.07672 18.6748 2.56734C18.4716 3.05795 18.3669 3.5838 18.3669 4.11486C18.3669 4.64591 18.4716 5.17176 18.6748 5.66238C18.878 6.15299 19.1759 6.59877 19.5515 6.97425C20.3095 7.73251 20.7354 8.76079 20.7354 9.83297C20.7354 10.9051 20.3095 11.9334 19.5515 12.6917" stroke="#222223" stroke-width="2" stroke-linecap="round" stroke-linejoin="round"/>
<path d="M24.9521 1.25546C24.5766 1.63094 24.2787 2.07672 24.0754 2.56734C23.8722 3.05795 23.7676 3.5838 23.7676 4.11486C23.7676 4.64591 23.8722 5.17176 24.0754 5.66238C24.2787 6.15299 24.5766 6.59877 24.9521 6.97425C25.7101 7.73251 26.136 8.76079 26.136 9.83297C26.136 10.9051 25.7101 11.9334 24.9521 12.6917" stroke="#222223" stroke-width="2" stroke-linecap="round" stroke-linejoin="round"/>
<path d="M26.106 25.5162V17.4293" stroke="#222223" stroke-width="2" stroke-linecap="round" stroke-linejoin="round"/>
<path d="M18.019 25.5162V17.4293" stroke="#222223" stroke-width="2" stroke-linecap="round" stroke-linejoin="round"/>
<path d="M22.0625 25.5162V17.4293" stroke="#222223" stroke-width="2" stroke-linecap="round" stroke-linejoin="round"/>
<path d="M13.9756 25.5162V17.4293" stroke="#222223" stroke-width="2" stroke-linecap="round" stroke-linejoin="round"/>
<path d="M7.40491 12.3749C7.40491 12.4749 7.37526 12.5726 7.31972 12.6557C7.26419 12.7389 7.18525 12.8036 7.09289 12.8419C7.00054 12.8802 6.89891 12.8902 6.80087 12.8707C6.70283 12.8512 6.61277 12.803 6.54208 12.7323C6.47139 12.6616 6.42326 12.5716 6.40375 12.4735C6.38425 12.3755 6.39426 12.2739 6.43252 12.1815C6.47077 12.0892 6.53555 12.0102 6.61867 11.9547C6.70179 11.8992 6.79951 11.8695 6.89947 11.8695C7.03352 11.8695 7.16208 11.9228 7.25687 12.0175C7.35165 12.1123 7.40491 12.2409 7.40491 12.3749Z" stroke="#222223" stroke-width="2" stroke-linecap="round" stroke-linejoin="round"/>
<path d="M7.40491 18.4401C7.40491 18.5401 7.37526 18.6378 7.31972 18.7209C7.26419 18.804 7.18525 18.8688 7.09289 18.9071C7.00054 18.9453 6.89891 18.9553 6.80087 18.9358C6.70283 18.9163 6.61277 18.8682 6.54208 18.7975C6.47139 18.7268 6.42326 18.6368 6.40375 18.5387C6.38425 18.4407 6.39426 18.3391 6.43252 18.2467C6.47077 18.1543 6.53555 18.0754 6.61867 18.0199C6.70179 17.9643 6.79951 17.9347 6.89947 17.9347C7.03352 17.9347 7.16208 17.9879 7.25687 18.0827C7.35165 18.1775 7.40491 18.3061 7.40491 18.4401Z" stroke="#222223" stroke-width="2" stroke-linecap="round" stroke-linejoin="round"/>
<path d="M5.88867 29.5596V31.5813" stroke="#222223" stroke-width="2" stroke-linecap="round" stroke-linejoin="round"/>
<path d="M28.1277 29.5596V31.5813" stroke="#222223" stroke-width="2" stroke-linecap="round" stroke-linejoin="round"/>
<path d="M7.91039 7.32065H3.86694C3.33074 7.32065 2.81651 7.53365 2.43736 7.9128C2.05822 8.29194 1.84521 8.80618 1.84521 9.34237V27.5379C1.84521 28.0741 2.05822 28.5883 2.43736 28.9675C2.81651 29.3466 3.33074 29.5596 3.86694 29.5596H30.1494C30.6856 29.5596 31.1998 29.3466 31.5789 28.9675C31.9581 28.5883 32.1711 28.0741 32.1711 27.5379V9.34237C32.1711 8.80618 31.9581 8.29194 31.5789 7.9128C31.1998 7.53365 30.6856 7.32065 30.1494 7.32065" stroke="#222223" stroke-width="2" stroke-linecap="round" stroke-linejoin="round"/>
</svg>
