<svg width="277" height="223" viewBox="0 0 277 223" fill="none" xmlns="http://www.w3.org/2000/svg">
<circle opacity="0.09" cx="132.58" cy="111.592" r="110.65" fill="#fb8722"/>
<g filter="url(#filter0_dd_721_15363)">
<path fill-rule="evenodd" clip-rule="evenodd" d="M176.018 124.957C176.018 119.878 180.765 115.756 183.41 111.421C184.288 109.982 184.794 108.29 184.794 106.481V42.1069C184.794 36.8602 180.541 32.6069 175.294 32.6069H27.5469C22.3002 32.6069 18.0469 36.8602 18.0469 42.1069V106.481C18.0469 108.29 18.5528 109.982 19.431 111.421C22.0759 115.756 26.8232 119.879 26.8232 124.957V168.638V181.078C26.8232 181.734 26.8897 182.374 27.0162 182.992C27.9021 187.321 31.7324 190.578 36.3232 190.578H166.518C171.765 190.578 176.018 186.325 176.018 181.078V168.638V124.957Z" fill="#FF0000" fill-opacity="0.01" shape-rendering="crispEdges"/>
</g>
<path d="M176.018 181.078C176.018 186.325 171.765 190.578 166.518 190.578H36.3232C31.0765 190.578 26.8232 186.325 26.8232 181.078V63.3235H176.018V181.078Z" fill="white"/>
<path d="M26.8232 168.638H176.018V181.078C176.018 186.325 171.765 190.578 166.518 190.578H36.3232C31.0765 190.578 26.8232 186.325 26.8232 181.078V168.638Z" fill="#F6F6F6"/>
<path d="M118.972 190.578V146.337C118.972 136.841 110.995 129.145 101.359 129.145C91.7312 129.145 83.916 136.841 83.916 146.337V190.578H118.972Z" fill="#fb8722"/>
<path opacity="0.8" d="M136.525 128.757C136.525 126.548 138.316 124.757 140.525 124.757H154.465C156.674 124.757 158.465 126.548 158.465 128.757V155.861C158.465 158.071 156.674 159.861 154.465 159.861H140.525C138.316 159.861 136.525 158.071 136.525 155.861V128.757ZM44.375 128.757C44.375 126.548 46.1659 124.757 48.375 124.757H62.3154C64.5246 124.757 66.3154 126.548 66.3154 128.757V155.861C66.3154 158.071 64.5246 159.861 62.3154 159.861H48.375C46.1659 159.861 44.375 158.071 44.375 155.861V128.757Z" fill="#B7B7B7"/>
<path d="M184.794 106.481C184.794 111.727 180.541 115.981 175.294 115.981H128.662L101.42 74.2147L74.1748 115.981H27.5469C22.3002 115.981 18.0469 111.727 18.0469 106.481V42.1069C18.0469 36.8602 22.3002 32.6069 27.5469 32.6069H175.294C180.541 32.6069 184.794 36.8602 184.794 42.1069V106.481Z" fill="#fb8722"/>
<path d="M59.1592 115.981H74.1708L97.2284 80.6348C99.2013 77.6105 103.631 77.6106 105.604 80.6351L128.658 115.981H145.297L106.412 56.5535C104.438 53.537 100.018 53.537 98.0443 56.5535L59.1592 115.981Z" fill="#e67e00"/>
<g filter="url(#filter1_dd_721_15363)">
<path fill-rule="evenodd" clip-rule="evenodd" d="M244.684 82.1013C243.665 83.2071 242.386 84.0408 240.963 84.5268C240.329 84.7392 239.673 84.8773 239.007 84.9385V80.0825C239.616 79.9437 240.212 79.7526 240.789 79.5111C241.845 79.0687 242.827 78.4651 243.698 77.7219L244.684 82.1013ZM207.588 82.4956L204.516 82.7875L206.617 85.0483L205.948 88.0577L208.745 86.7577L211.403 88.3248L211.031 85.2629L213.342 83.2192L210.315 82.6278L209.085 79.7981L207.588 82.4956ZM216.027 160.764L216.802 160.386L216.812 160.383C217.176 160.254 217.524 160.084 217.848 159.877L218.213 159.699L218.168 159.654C218.29 159.562 218.408 159.464 218.522 159.36C219.426 158.456 219.843 157.151 219.817 155.545C226.713 158.209 232.749 162.797 237.173 168.82C237.494 167.391 237.814 165.974 238.133 164.561L238.496 162.953C234.604 158.151 229.619 154.35 223.958 151.868C222.174 151.086 220.339 150.442 218.47 149.938C216.703 145.603 213.266 140.408 208.562 135.204C209.16 134.925 209.76 134.651 210.355 134.378C215.415 132.06 220.176 129.878 221.001 126.449L222.249 121.263C222.234 121.317 222.218 121.371 222.2 121.423L222.242 121.246C223.443 116.244 220.932 112.567 218.579 109.121C217.218 107.127 215.909 105.21 215.402 103.158C217.734 101.32 222.213 102.686 226.468 103.985C231.279 105.453 235.805 106.834 236.628 103.404L237.872 98.233C237.045 101.644 232.526 100.266 227.723 98.8014C222.346 97.1616 216.612 95.4129 215.298 100.15C215.319 100.033 215.344 99.9161 215.372 99.7981L214.125 104.981C212.853 109.847 215.318 113.453 217.673 116.898C219.074 118.948 220.436 120.94 220.949 123.107C219.018 124.679 215.339 125.58 211.381 126.55L211.381 126.55L211.15 126.606L211.723 124.702C210.862 124.557 210.036 124.254 209.285 123.809C207.957 122.997 206.92 121.787 206.321 120.35C205.396 121.916 204.471 123.48 203.546 125.042C203.989 126.21 204.71 127.251 205.647 128.076C204.58 128.407 203.545 128.77 202.573 129.18C199.597 126.502 196.372 124.113 192.941 122.047C195.213 119.435 197.1 116.957 196.365 114.471L195.124 111.211L195.119 111.185C195.014 110.799 194.874 110.439 194.702 110.102L194.484 109.528C194.515 109.633 194.541 109.739 194.563 109.845C192.778 106.741 188.244 105.658 183.98 104.639C181.61 104.072 179.324 103.526 177.638 102.664C178.995 100.111 182.398 97.9243 185.637 95.8424C189.683 93.2428 193.475 90.8063 192.712 88.0226L189.987 80.4043C190.75 83.1865 187.132 86.2056 183.272 89.4269C179.256 92.7777 174.978 96.3475 175.095 100.097C175.073 100.032 175.053 99.9656 175.034 99.8982L175.105 100.287C175.127 100.597 175.179 100.908 175.265 101.221L175.282 101.266L175.98 105.109C176.742 107.891 180.699 108.835 184.921 109.843L184.921 109.843C188.224 110.631 191.689 111.458 193.914 113.234C193.102 114.787 191.712 116.363 190.273 117.997C189.757 118.582 189.234 119.175 188.729 119.777C184.025 117.693 180.446 117.566 178.586 119.427C178.404 119.608 178.242 119.806 178.099 120.019L178.083 120.003L177.968 120.228C177.882 120.376 177.804 120.531 177.734 120.692C175.879 124.367 174.01 128.309 172.174 132.505C170.919 135.405 169.666 138.414 168.448 141.566C167.982 142.728 167.541 143.916 167.095 145.116L167.095 145.116L167.095 145.116C166.992 145.394 166.888 145.673 166.784 145.952C165.923 148.318 165.044 150.734 164.221 153.169C163.183 156.188 162.18 159.223 161.304 162.177L161.284 162.195C160.206 165.646 159.275 168.89 158.539 171.884C158.376 173.05 158.486 174.239 158.859 175.355C159.232 176.472 159.858 177.488 160.689 178.322C161.52 179.156 162.533 179.787 163.648 180.165C164.764 180.542 165.951 180.656 167.118 180.498C170.343 179.694 173.51 178.677 176.601 177.454C177.977 176.927 179.367 176.372 180.791 175.803L180.792 175.803L180.793 175.803L180.794 175.802L180.797 175.801C182.177 175.25 183.589 174.686 185.052 174.123C186.772 173.441 188.561 172.763 190.442 172.099C192.431 171.4 194.462 170.632 196.459 169.771C199.408 168.57 202.365 167.263 205.192 165.938C209.047 164.166 212.722 162.375 216.025 160.765L216.025 160.765L216.026 160.764L216.026 160.764L216.027 160.764ZM164.511 111.362L168.016 110.395L169.201 106.958L171.208 109.99L174.841 110.057L172.578 112.902L173.636 116.379L170.231 115.104L167.251 117.185L167.411 113.556L164.511 111.362ZM234.223 147.75L231.311 146.732L232.271 149.661L230.402 152.117L233.489 152.107L235.243 154.642L236.189 151.705L239.144 150.819L236.643 149.013L236.711 145.928L234.223 147.75ZM243.614 115.244L249.283 117.226L254.125 113.68L253.994 119.683L258.861 123.2L253.11 124.924L251.269 130.641L247.855 125.706L241.846 125.726L245.484 120.946L243.614 115.244ZM202.046 113.731C202.988 113.367 203.834 112.79 204.516 112.045L203.713 108.724C202.324 109.579 200.714 110.005 199.084 109.949V114.144C200.09 114.236 201.104 114.095 202.046 113.731ZM166.901 86.8324C166.165 86.1425 165.598 85.292 165.245 84.3472L167.229 81.5549C167.849 82.3994 168.621 83.1212 169.505 83.6835C169.994 83.9863 170.513 84.2372 171.054 84.4321L169.487 88.3249C168.522 88.0331 167.637 87.5223 166.901 86.8324ZM233.24 141.221C232.222 142.33 230.943 143.168 229.52 143.659C228.886 143.871 228.229 144.009 227.563 144.071V139.202C229.294 138.806 230.903 137.996 232.252 136.842L233.24 141.221ZM245.333 107.634C246.839 109.095 248.719 110.112 250.765 110.573L251.586 106.793C250.598 106.563 249.669 106.13 248.857 105.521C248.046 104.912 247.371 104.14 246.875 103.254L245.333 107.634Z" fill="#FF0000" fill-opacity="0.01" shape-rendering="crispEdges"/>
</g>
<path d="M218.213 159.7C214.38 161.561 209.921 163.764 205.192 165.938C202.365 167.263 199.408 168.571 196.459 169.771C194.462 170.632 192.431 171.4 190.442 172.099C188.561 172.763 186.772 173.441 185.052 174.123C182.078 175.268 179.313 176.416 176.601 177.454C173.51 178.677 170.343 179.694 167.118 180.498C165.951 180.656 164.764 180.542 163.648 180.165C162.533 179.787 161.52 179.156 160.689 178.322C159.858 177.488 159.232 176.472 158.859 175.356C158.486 174.239 158.376 173.051 158.539 171.884C159.275 168.89 160.206 165.646 161.284 162.195L161.304 162.177C162.18 159.223 163.183 156.189 164.221 153.169C165.044 150.734 165.923 148.318 166.784 145.953C167.338 144.468 167.874 142.998 168.448 141.566C169.666 138.414 170.919 135.405 172.174 132.505C174.125 128.046 176.114 123.874 178.083 120.003C191.465 133.229 204.841 146.461 218.213 159.7Z" fill="#fb8722"/>
<path d="M218.078 158.92C221.795 155.203 216.065 143.447 205.28 132.662C194.495 121.878 182.739 116.148 179.023 119.865C175.306 123.581 181.036 135.337 191.821 146.122C202.605 156.907 214.361 162.637 218.078 158.92Z" fill="#e67e00"/>
<path d="M214.839 160.658C209.321 160.658 200.128 155.313 191.382 146.564C180.185 135.367 174.563 123.447 178.586 119.427C180.582 117.43 184.557 117.722 189.778 120.265C195.696 123.378 201.079 127.414 205.726 132.223C216.92 143.42 222.542 155.34 218.522 159.36C218.026 159.812 217.445 160.16 216.812 160.383C216.179 160.606 215.508 160.699 214.839 160.658ZM182.284 119.359C181.775 119.323 181.263 119.388 180.779 119.551C180.295 119.714 179.848 119.971 179.464 120.308C176.427 123.344 180.847 134.264 192.261 145.683C203.674 157.102 214.599 161.519 217.636 158.479C220.673 155.44 216.253 144.52 204.84 133.104C200.291 128.395 195.021 124.44 189.229 121.388C187.087 120.22 184.718 119.528 182.284 119.359Z" fill="#FF8080"/>
<path d="M204.517 82.7875L207.588 82.4956L209.086 79.7981L210.316 82.6278L213.343 83.2192L211.032 85.2629L211.404 88.3248L208.746 86.7577L205.949 88.0577L206.618 85.0483L204.517 82.7875Z" fill="#FFC01F"/>
<path d="M164.511 111.362L168.016 110.395L169.202 106.958L171.208 109.99L174.842 110.057L172.579 112.902L173.637 116.379L170.232 115.104L167.252 117.185L167.412 113.556L164.511 111.362Z" fill="#FFC01F"/>
<path d="M231.311 146.732L234.223 147.75L236.711 145.928L236.643 149.013L239.144 150.819L236.189 151.705L235.243 154.642L233.489 152.107L230.402 152.117L232.271 149.662L231.311 146.732Z" fill="#FFC01F"/>
<path d="M243.615 115.244L249.283 117.226L254.126 113.68L253.995 119.683L258.861 123.2L253.111 124.924L251.27 130.641L247.855 125.706L241.847 125.726L245.485 120.946L243.615 115.244Z" fill="#FFC01F"/>
<path d="M213.995 105.545C216.253 96.1352 234.871 110.723 236.628 103.404L237.876 98.2189C236.129 105.538 217.504 90.9524 215.243 100.362L213.995 105.545Z" fill="#FFAA5B"/>
<path d="M220.997 126.441C222.621 118.855 211.727 114.159 214.125 104.981L215.372 99.7982C213.626 107.117 224.5 111.836 222.242 121.246L220.997 126.441Z" fill="#FFAA5B"/>
<path d="M197.295 144.812C199.554 135.402 219.24 133.768 221.001 126.449L222.249 121.263C220.477 127.619 198.294 125.61 196.03 135.522L197.295 144.812Z" fill="#FFAA5B"/>
<path d="M205.954 148.685C203.206 148.985 200.508 149.633 197.924 150.614L197.946 150.631C198.917 151.357 199.531 151.832 199.828 152.059C200.235 152.368 200.826 152.807 201.599 153.321C204.331 152.975 207.093 152.929 209.834 153.184C211.298 153.331 212.754 153.553 214.196 153.848C223.417 155.888 231.582 161.209 237.173 168.82C237.615 166.849 238.057 164.9 238.496 162.953C234.604 158.151 229.619 154.35 223.958 151.868C218.296 149.385 212.123 148.294 205.954 148.685Z" fill="#FFAA5B"/>
<path d="M177.194 106.161C175.058 98.3609 194.347 93.9891 192.712 88.0226L189.987 80.4043C191.622 86.3682 173.129 93.4201 175.265 101.221L177.194 106.161Z" fill="#FFAA5B"/>
<path d="M196.065 116.392C193.929 108.592 177.614 111.072 175.98 105.108L175.034 99.8981C176.666 105.865 192.983 103.392 195.119 111.185L196.065 116.392Z" fill="#FFAA5B"/>
<path d="M187.232 134.055C184.939 126.297 198.119 120.403 196.365 114.471L194.484 109.528C196.23 115.459 183.055 121.356 185.348 129.111L187.232 134.055Z" fill="#FFAA5B"/>
<path d="M210.149 129.935C208.514 129.818 206.959 129.186 205.707 128.128C204.741 127.295 203.998 126.234 203.546 125.042C204.471 123.479 205.396 121.916 206.321 120.35C206.92 121.787 207.957 122.997 209.285 123.809C210.036 124.254 210.862 124.557 211.723 124.702L210.149 129.935Z" fill="#B7B7B7"/>
<path d="M204.516 112.046C203.834 112.79 202.988 113.367 202.046 113.731C201.104 114.095 200.09 114.237 199.084 114.144V109.949C200.714 110.005 202.324 109.579 203.713 108.724L204.516 112.046Z" fill="#B7B7B7"/>
<path d="M244.684 82.1013C243.665 83.2071 242.386 84.0408 240.963 84.5268C240.329 84.7392 239.673 84.8773 239.007 84.9385V80.0825C239.616 79.9437 240.212 79.7526 240.789 79.5111C241.845 79.0687 242.827 78.4651 243.698 77.7219L244.684 82.1013Z" fill="#B7B7B7"/>
<path d="M165.245 84.3471C165.598 85.2919 166.165 86.1424 166.901 86.8323C167.637 87.5222 168.522 88.0329 169.487 88.3247L171.054 84.432C170.513 84.237 169.994 83.9861 169.505 83.6834C168.621 83.1211 167.849 82.3993 167.229 81.5548L165.245 84.3471Z" fill="#E9E9E9"/>
<path d="M233.24 141.221C232.222 142.33 230.943 143.168 229.52 143.659C228.886 143.871 228.229 144.009 227.563 144.071V139.202C229.294 138.806 230.903 137.996 232.252 136.842L233.24 141.221Z" fill="#B7B7B7"/>
<path d="M250.765 110.573C248.719 110.112 246.839 109.095 245.333 107.634L246.875 103.254C247.371 104.14 248.046 104.912 248.857 105.521C249.669 106.13 250.598 106.563 251.586 106.793L250.765 110.573Z" fill="#B7B7B7"/>
<defs>
<filter id="filter0_dd_721_15363" x="0.766874" y="15.3269" width="201.307" height="197.093" filterUnits="userSpaceOnUse" color-interpolation-filters="sRGB">
<feFlood flood-opacity="0" result="BackgroundImageFix"/>
<feColorMatrix in="SourceAlpha" type="matrix" values="0 0 0 0 0 0 0 0 0 0 0 0 0 0 0 0 0 0 127 0" result="hardAlpha"/>
<feOffset dy="4.85375"/>
<feGaussianBlur stdDeviation="8.49406"/>
<feComposite in2="hardAlpha" operator="out"/>
<feColorMatrix type="matrix" values="0 0 0 0 0.132391 0 0 0 0 0.13228 0 0 0 0 0.137836 0 0 0 0.04 0"/>
<feBlend mode="normal" in2="BackgroundImageFix" result="effect1_dropShadow_721_15363"/>
<feColorMatrix in="SourceAlpha" type="matrix" values="0 0 0 0 0 0 0 0 0 0 0 0 0 0 0 0 0 0 127 0" result="hardAlpha"/>
<feOffset/>
<feGaussianBlur stdDeviation="8.64"/>
<feComposite in2="hardAlpha" operator="out"/>
<feColorMatrix type="matrix" values="0 0 0 0 0 0 0 0 0 0 0 0 0 0 0 0 0 0 0.04 0"/>
<feBlend mode="normal" in2="effect1_dropShadow_721_15363" result="effect2_dropShadow_721_15363"/>
<feBlend mode="normal" in="SourceGraphic" in2="effect2_dropShadow_721_15363" result="shape"/>
</filter>
<filter id="filter1_dd_721_15363" x="141.186" y="60.4419" width="134.956" height="141.967" filterUnits="userSpaceOnUse" color-interpolation-filters="sRGB">
<feFlood flood-opacity="0" result="BackgroundImageFix"/>
<feColorMatrix in="SourceAlpha" type="matrix" values="0 0 0 0 0 0 0 0 0 0 0 0 0 0 0 0 0 0 127 0" result="hardAlpha"/>
<feOffset dy="4.85375"/>
<feGaussianBlur stdDeviation="8.49406"/>
<feComposite in2="hardAlpha" operator="out"/>
<feColorMatrix type="matrix" values="0 0 0 0 0.132391 0 0 0 0 0.13228 0 0 0 0 0.137836 0 0 0 0.05 0"/>
<feBlend mode="normal" in2="BackgroundImageFix" result="effect1_dropShadow_721_15363"/>
<feColorMatrix in="SourceAlpha" type="matrix" values="0 0 0 0 0 0 0 0 0 0 0 0 0 0 0 0 0 0 127 0" result="hardAlpha"/>
<feOffset/>
<feGaussianBlur stdDeviation="8.64"/>
<feComposite in2="hardAlpha" operator="out"/>
<feColorMatrix type="matrix" values="0 0 0 0 0 0 0 0 0 0 0 0 0 0 0 0 0 0 0.09 0"/>
<feBlend mode="normal" in2="effect1_dropShadow_721_15363" result="effect2_dropShadow_721_15363"/>
<feBlend mode="normal" in="SourceGraphic" in2="effect2_dropShadow_721_15363" result="shape"/>
</filter>
</defs>
</svg>
