<svg width="29" height="29" viewBox="0 0 29 29" fill="none" xmlns="http://www.w3.org/2000/svg">
<path d="M0.776893 27.9191C0.776893 28.28 1.06941 28.5725 1.43024 28.5725H21.2421C21.3712 28.5725 21.4975 28.5342 21.6048 28.4625L28.1752 24.0773C28.3568 23.9561 28.4659 23.7522 28.4659 23.5339V9.41008C28.4659 9.20244 28.3672 9.00718 28.2 8.88404L17.5048 1.00589C16.993 0.628944 16.2958 0.627933 15.7829 1.00339C14.9911 1.58314 14.9889 2.76461 15.7786 3.34729L25.3681 10.4231C25.4373 10.4742 25.4782 10.5552 25.4782 10.6412V22.145C25.4782 22.2932 25.4041 22.4315 25.2808 22.5137L20.6235 25.6161C20.5508 25.6646 20.4654 25.6904 20.378 25.6904H4.20753C3.96288 25.6904 3.76456 25.4921 3.76456 25.2475V13.7499C3.76456 13.6098 3.83079 13.478 3.94317 13.3945L11.359 7.87885C11.5159 7.76214 11.7308 7.76214 11.8877 7.87885L19.4528 13.5055C19.4713 13.5192 19.4822 13.5409 19.4822 13.5639V19.9617C19.4822 21.1597 20.8217 21.8703 21.8136 21.1986C22.224 20.9207 22.4699 20.4573 22.4699 19.9617V12.4494C22.4699 12.2427 22.3721 12.0482 22.2062 11.925L12.013 4.35243C11.7817 4.18058 11.4651 4.18058 11.2338 4.35243L1.04062 11.925C0.874699 12.0482 0.776893 12.2427 0.776893 12.4494V27.9191Z" fill="#F85757" stroke="#F85757" stroke-width="0.210374"/>
</svg>
