<svg width="34" height="26" viewBox="0 0 34 26" fill="none" xmlns="http://www.w3.org/2000/svg">
<path d="M13.9019 1.86069H24.0309C25.3564 1.85951 26.6399 2.32551 27.6558 3.17681C28.6718 4.02812 29.3553 5.21025 29.5861 6.51549L32.6751 24.0267C32.6924 24.1237 32.6882 24.2233 32.6628 24.3185C32.6374 24.4137 32.5914 24.5022 32.5281 24.5777C32.4648 24.6532 32.3857 24.7139 32.2963 24.7555C32.207 24.7971 32.1096 24.8186 32.0111 24.8185H1.74805C1.74805 23.045 2.09738 21.2889 2.7761 19.6505C3.45482 18.012 4.44963 16.5233 5.70372 15.2693C6.95782 14.0154 8.44663 13.0207 10.0852 12.3422C11.7237 11.6636 13.4798 11.3144 15.2533 11.3146H30.4261" stroke="#222223" stroke-width="2.3" stroke-linecap="round" stroke-linejoin="round"/>
<path d="M10.5119 18.6323C10.6138 18.6323 10.7135 18.6625 10.7983 18.7192C10.8831 18.7758 10.9491 18.8563 10.9882 18.9505C11.0272 19.0447 11.0374 19.1484 11.0175 19.2484C10.9976 19.3484 10.9485 19.4402 10.8764 19.5123C10.8043 19.5844 10.7125 19.6335 10.6125 19.6534C10.5125 19.6733 10.4088 19.6631 10.3146 19.6241C10.2204 19.5851 10.1399 19.519 10.0832 19.4342C10.0266 19.3494 9.99636 19.2498 9.99636 19.1478C9.99636 19.0111 10.0507 18.88 10.1474 18.7833C10.244 18.6866 10.3752 18.6323 10.5119 18.6323" stroke="#222223" stroke-width="2.3" stroke-linecap="round" stroke-linejoin="round"/>
<path d="M17.7292 18.6323C17.8311 18.6323 17.9308 18.6625 18.0156 18.7192C18.1003 18.7758 18.1664 18.8563 18.2054 18.9505C18.2444 19.0447 18.2547 19.1484 18.2348 19.2484C18.2149 19.3484 18.1658 19.4402 18.0937 19.5123C18.0216 19.5844 17.9297 19.6335 17.8297 19.6534C17.7297 19.6733 17.6261 19.6631 17.5319 19.6241C17.4377 19.5851 17.3572 19.519 17.3005 19.4342C17.2439 19.3494 17.2136 19.2498 17.2136 19.1478C17.2136 19.0111 17.2679 18.88 17.3646 18.7833C17.4613 18.6866 17.5924 18.6323 17.7292 18.6323" stroke="#222223" stroke-width="2.3" stroke-linecap="round" stroke-linejoin="round"/>
<path d="M24.9464 18.6323C25.0484 18.6323 25.1481 18.6625 25.2328 18.7192C25.3176 18.7758 25.3837 18.8563 25.4227 18.9505C25.4617 19.0447 25.4719 19.1484 25.452 19.2484C25.4321 19.3484 25.3831 19.4402 25.311 19.5123C25.2389 19.5844 25.147 19.6335 25.047 19.6534C24.947 19.6733 24.8433 19.6631 24.7491 19.6241C24.6549 19.5851 24.5744 19.519 24.5178 19.4342C24.4611 19.3494 24.4309 19.2498 24.4309 19.1478C24.4309 19.0111 24.4852 18.88 24.5819 18.7833C24.6786 18.6866 24.8097 18.6323 24.9464 18.6323" stroke="#222223" stroke-width="2.3" stroke-linecap="round" stroke-linejoin="round"/>
</svg>
