<svg width="35" height="35" viewBox="0 0 35 35" fill="none" xmlns="http://www.w3.org/2000/svg">
<path d="M18.4162 20.6118H33.6383L32.6757 26.3904C32.3373 28.4217 31.2892 30.267 29.7179 31.5981C28.1466 32.9291 26.1541 33.6595 24.0948 33.6593H10.5631C8.50379 33.6595 6.51123 32.9291 4.93994 31.5981C3.36865 30.267 2.32056 28.4217 1.98215 26.3904L1.01953 20.6118H7.54329" fill="white"/>
<path d="M18.4162 20.6118H33.6383L32.6757 26.3904C32.3373 28.4217 31.2892 30.267 29.7179 31.5981C28.1466 32.9291 26.1541 33.6595 24.0948 33.6593H10.5631C8.50379 33.6595 6.51123 32.9291 4.93994 31.5981C3.36865 30.267 2.32056 28.4217 1.98215 26.3904L1.01953 20.6118H7.54329" stroke="#222223" stroke-width="2" stroke-linecap="round" stroke-linejoin="round"/>
<path d="M17.3276 29.3102H8.62929C8.34092 29.3102 8.06436 29.1956 7.86045 28.9917C7.65655 28.7878 7.54199 28.5113 7.54199 28.2229V20.6118C7.54199 20.0351 7.7711 19.482 8.17891 19.0742C8.58673 18.6664 9.13984 18.4373 9.71658 18.4373H16.2403C16.8171 18.4373 17.3702 18.6664 17.778 19.0742C18.1858 19.482 18.4149 20.0351 18.4149 20.6118V28.2229C18.4149 28.5113 18.3004 28.7878 18.0965 28.9917C17.8926 29.1956 17.616 29.3102 17.3276 29.3102Z" fill="white" stroke="#222223" stroke-width="2" stroke-linecap="round" stroke-linejoin="round"/>
<path d="M22.7646 5.3897C22.7646 4.23623 23.2229 3.13 24.0385 2.31437C24.8541 1.49874 25.9603 1.04053 27.1138 1.04053C28.2673 1.04053 29.3735 1.49874 30.1892 2.31437C31.0048 3.13 31.463 4.23623 31.463 5.3897V20.6118" stroke="#222223" stroke-width="2" stroke-linecap="round" stroke-linejoin="round"/>
<path d="M18.415 9.73907C18.415 8.58559 18.8733 7.47936 19.6889 6.66374C20.5045 5.84811 21.6107 5.38989 22.7642 5.38989C23.9177 5.38989 25.0239 5.84811 25.8395 6.66374C26.6552 7.47936 27.1134 8.58559 27.1134 9.73907H18.415Z" fill="white" stroke="#222223" stroke-width="2" stroke-linecap="round" stroke-linejoin="round"/>
</svg>
