<svg width="32" height="29" viewBox="0 0 32 29" fill="none" xmlns="http://www.w3.org/2000/svg">
<path d="M3.58209 1.49423H28.2101V28.0167H3.58209V1.49423Z" stroke="#222223" stroke-width="1.89446" stroke-linecap="round" stroke-linejoin="round"/>
<path d="M1.68762 1.49423H30.1045" stroke="#222223" stroke-width="1.89446" stroke-linecap="round" stroke-linejoin="round"/>
<path d="M1.68762 28.0167H30.1045" stroke="#222223" stroke-width="1.89446" stroke-linecap="round" stroke-linejoin="round"/>
<path d="M23.2075 12.861H8.58474C7.91442 12.861 7.37102 13.4044 7.37102 14.0747V23.014C7.37102 23.6844 7.91442 24.2278 8.58474 24.2278H23.2075C23.8778 24.2278 24.4212 23.6844 24.4212 23.014V14.0747C24.4212 13.4044 23.8778 12.861 23.2075 12.861Z" stroke="#222223" stroke-width="1.89446" stroke-linecap="round" stroke-linejoin="round"/>
<path d="M12.1072 16.6499H19.685" stroke="#222223" stroke-width="1.89446" stroke-linecap="round" stroke-linejoin="round"/>
<path d="M11.1599 4.80954C11.2536 4.80954 11.3452 4.83732 11.4231 4.88936C11.5009 4.9414 11.5616 5.01537 11.5975 5.10191C11.6333 5.18845 11.6427 5.28368 11.6244 5.37555C11.6062 5.46743 11.5611 5.55182 11.4948 5.61805C11.4286 5.68429 11.3442 5.7294 11.2523 5.74767C11.1605 5.76594 11.0652 5.75657 10.9787 5.72072C10.8921 5.68487 10.8182 5.62417 10.7661 5.54628C10.7141 5.4684 10.6863 5.37683 10.6863 5.28316C10.6863 5.15754 10.7362 5.03708 10.825 4.94826C10.9138 4.85944 11.0343 4.80954 11.1599 4.80954" stroke="#222223" stroke-width="1.89446" stroke-linecap="round" stroke-linejoin="round"/>
<path d="M7.371 4.80954C7.46467 4.80954 7.55624 4.83732 7.63413 4.88936C7.71201 4.9414 7.77272 5.01537 7.80856 5.10191C7.84441 5.18845 7.85379 5.28368 7.83551 5.37555C7.81724 5.46743 7.77213 5.55182 7.7059 5.61805C7.63966 5.68429 7.55527 5.7294 7.4634 5.74767C7.37153 5.76594 7.2763 5.75657 7.18976 5.72072C7.10321 5.68487 7.02924 5.62417 6.9772 5.54628C6.92516 5.4684 6.89738 5.37683 6.89738 5.28316C6.89738 5.15754 6.94728 5.03708 7.0361 4.94826C7.12492 4.85944 7.24539 4.80954 7.371 4.80954" stroke="#222223" stroke-width="1.89446" stroke-linecap="round" stroke-linejoin="round"/>
<path d="M3.58209 9.07208H28.2101" stroke="#222223" stroke-width="1.89446" stroke-linecap="round" stroke-linejoin="round"/>
<path d="M17.7905 5.28314H24.4212" stroke="#222223" stroke-width="1.89446" stroke-linecap="round" stroke-linejoin="round"/>
</svg>
