<svg width="32" height="32" viewBox="0 0 32 32" fill="none" xmlns="http://www.w3.org/2000/svg">
<path d="M1.30101 30.9004C2.35761 31.0312 3.43008 30.9243 4.44011 30.5876C5.45014 30.251 6.37223 29.693 7.13905 28.9544C7.69214 29.567 8.36763 30.0567 9.12185 30.3919C9.87607 30.7271 10.6922 30.9003 11.5176 30.9003C12.3429 30.9003 13.1591 30.7271 13.9133 30.3919C14.6675 30.0567 15.343 29.567 15.8961 28.9544C16.4492 29.567 17.1247 30.0567 17.8789 30.3919C18.6331 30.7271 19.4493 30.9003 20.2746 30.9003C21.1 30.9003 21.9162 30.7271 22.6704 30.3919C23.4246 30.0567 24.1001 29.567 24.6532 28.9544C25.42 29.693 26.3421 30.251 27.3521 30.5876C28.3622 30.9243 29.4346 31.0312 30.4912 30.9004" stroke="#222223" stroke-width="1.8" stroke-linecap="round" stroke-linejoin="round"/>
<path d="M28.5543 27.0187C29.3321 26.3031 29.962 25.4419 30.4082 24.4837C30.4739 24.3356 30.5015 24.1733 30.4886 24.0118C30.4757 23.8502 30.4226 23.6944 30.3342 23.5586C30.2458 23.4227 30.1248 23.3111 29.9823 23.2339C29.8398 23.1567 29.6803 23.1163 29.5182 23.1163H2.27403C2.11195 23.1163 1.95241 23.1567 1.80991 23.2339C1.66741 23.3111 1.54647 23.4227 1.45805 23.5586C1.36964 23.6944 1.31656 23.8502 1.30364 24.0118C1.29071 24.1733 1.31835 24.3356 1.38405 24.4837C1.92338 25.6297 2.7156 26.6384 3.70111 27.4339" stroke="#222223" stroke-width="1.8" stroke-linecap="round" stroke-linejoin="round"/>
<path d="M14.9231 23.1163V3.35391C14.9232 3.00825 14.8143 2.67136 14.612 2.39113C14.4096 2.1109 14.124 1.9016 13.7959 1.79298C13.4677 1.68436 13.1137 1.68196 12.7841 1.78611C12.4545 1.89026 12.1661 2.09566 11.96 2.37312L3.27427 15.7695C3.17802 15.9164 3.12333 16.0866 3.11601 16.2621C3.10868 16.4376 3.14898 16.6118 3.23265 16.7662C3.31631 16.9206 3.44021 17.0495 3.59121 17.1392C3.7422 17.2289 3.91467 17.2761 4.0903 17.2757L14.9205 17.2601" stroke="#222223" stroke-width="1.8" stroke-linecap="round" stroke-linejoin="round"/>
<path d="M20.6068 8.38888C20.4931 8.21194 20.3251 8.0766 20.1281 8.00312C19.931 7.92964 19.7155 7.92199 19.5137 7.98131C19.3119 8.04063 19.1348 8.16372 19.0089 8.33216C18.8829 8.50059 18.815 8.7053 18.8151 8.91561V19.2243H25.7897C25.9643 19.224 26.1357 19.1767 26.2858 19.0874C26.4359 18.9981 26.5593 18.8701 26.643 18.7168C26.7267 18.5635 26.7676 18.3905 26.7615 18.2159C26.7554 18.0414 26.7025 17.8717 26.6083 17.7246L20.6068 8.38888Z" stroke="#222223" stroke-width="1.8" stroke-linecap="round" stroke-linejoin="round"/>
</svg>
