<svg width="28" height="33" viewBox="0 0 28 33" fill="none" xmlns="http://www.w3.org/2000/svg">
<path d="M23.8652 1.29297H4.63488C3.11843 1.29297 1.8877 2.52371 1.8877 4.04015V28.7648C1.8877 30.2813 3.11843 31.512 4.63488 31.512H23.8652C25.3816 31.512 26.6124 30.2813 26.6124 28.7648V4.04015C26.6124 2.52371 25.3816 1.29297 23.8652 1.29297Z" stroke="#222223" stroke-width="2" stroke-linecap="round" stroke-linejoin="round"/>
<path d="M14.2498 12.2815C12.4283 12.2815 10.6814 13.0051 9.39342 14.2931C8.10542 15.5811 7.38184 17.328 7.38184 19.1495C7.38184 20.971 8.10542 22.7178 9.39342 24.0058C10.6814 25.2938 12.4283 26.0174 14.2498 26.0174C16.0713 26.0174 17.8182 25.2938 19.1062 24.0058C20.3942 22.7178 21.1178 20.971 21.1178 19.1495C21.1178 17.328 20.3942 15.5811 19.1062 14.2931C17.8182 13.0051 16.0713 12.2815 14.2498 12.2815V12.2815Z" stroke="#222223" stroke-width="2" stroke-linecap="round" stroke-linejoin="round"/>
<circle cx="7.08796" cy="6.753" r="1.96882" stroke="#222223" stroke-width="2" stroke-linecap="round" stroke-linejoin="round"/>
<circle cx="13.2813" cy="6.753" r="1.96882" stroke="#222223" stroke-width="2" stroke-linecap="round" stroke-linejoin="round"/>
</svg>
