<svg width="32" height="28" viewBox="0 0 32 28" fill="none" xmlns="http://www.w3.org/2000/svg">
<path d="M29.6045 1.56018H2.75411C2.03074 1.56018 1.44434 2.14659 1.44434 2.86996V21.8617C1.44434 22.5851 2.03074 23.1715 2.75411 23.1715H29.6045C30.3279 23.1715 30.9143 22.5851 30.9143 21.8617V2.86996C30.9143 2.14659 30.3279 1.56018 29.6045 1.56018Z" stroke="#222223" stroke-width="1.8" stroke-linecap="round" stroke-linejoin="round"/>
<path d="M5.37366 23.1715V27.1008" stroke="#222223" stroke-width="1.8" stroke-linecap="round" stroke-linejoin="round"/>
<path d="M26.985 23.1715V27.1008" stroke="#222223" stroke-width="1.8" stroke-linecap="round" stroke-linejoin="round"/>
<path d="M19.6476 5.4895H6.81703C6.01988 5.4895 5.37366 6.13572 5.37366 6.93288V17.7988C5.37366 18.5959 6.01988 19.2421 6.81703 19.2421H19.6476C20.4447 19.2421 21.091 18.5959 21.091 17.7988V6.93288C21.091 6.13572 20.4447 5.4895 19.6476 5.4895Z" stroke="#222223" stroke-width="1.8" stroke-linecap="round" stroke-linejoin="round"/>
<path d="M17.1616 9.41884V15.3128" stroke="#222223" stroke-width="1.8" stroke-linecap="round" stroke-linejoin="round"/>
<path d="M25.5115 17.2775C25.5115 17.1803 25.5403 17.0854 25.5942 17.0046C25.6482 16.9238 25.7249 16.8609 25.8147 16.8237C25.9044 16.7865 26.0032 16.7768 26.0985 16.7958C26.1937 16.8147 26.2813 16.8615 26.3499 16.9302C26.4186 16.9989 26.4654 17.0864 26.4844 17.1817C26.5033 17.2769 26.4936 17.3757 26.4564 17.4654C26.4192 17.5552 26.3563 17.6319 26.2755 17.6859C26.1947 17.7398 26.0998 17.7686 26.0026 17.7686C25.8724 17.7686 25.7474 17.7169 25.6553 17.6248C25.5632 17.5327 25.5115 17.4077 25.5115 17.2775Z" stroke="#222223" stroke-width="1.8" stroke-linecap="round" stroke-linejoin="round"/>
<path d="M25.5115 11.3835C25.5115 11.2864 25.5403 11.1914 25.5942 11.1106C25.6482 11.0299 25.7249 10.9669 25.8147 10.9297C25.9044 10.8925 26.0032 10.8828 26.0985 10.9018C26.1937 10.9207 26.2813 10.9675 26.3499 11.0362C26.4186 11.1049 26.4654 11.1924 26.4844 11.2877C26.5033 11.383 26.4936 11.4817 26.4564 11.5715C26.4192 11.6612 26.3563 11.7379 26.2755 11.7919C26.1947 11.8459 26.0998 11.8747 26.0026 11.8747C25.8724 11.8747 25.7474 11.8229 25.6553 11.7308C25.5632 11.6387 25.5115 11.5138 25.5115 11.3835Z" stroke="#222223" stroke-width="1.8" stroke-linecap="round" stroke-linejoin="round"/>
</svg>
