<svg width="33" height="35" viewBox="0 0 33 35" fill="none" xmlns="http://www.w3.org/2000/svg">
<path d="M23.438 18.4839C28.0916 18.4839 31.864 14.7114 31.864 10.0579C31.864 5.40439 28.0916 1.63196 23.438 1.63196C18.7845 1.63196 15.0121 5.40439 15.0121 10.0579C15.0121 14.7114 18.7845 18.4839 23.438 18.4839Z" stroke="#222223" stroke-width="1.8" stroke-linecap="round" stroke-linejoin="round"/>
<path d="M21.3314 10.0579H23.4379C23.9966 10.0579 24.5324 9.83595 24.9274 9.44091C25.3225 9.04587 25.5444 8.51007 25.5444 7.9514C25.5444 7.39272 25.3225 6.85693 24.9274 6.46189C24.5324 6.06684 23.9966 5.84491 23.4379 5.84491H21.3314V14.2709" stroke="#222223" stroke-width="1.8" stroke-linecap="round" stroke-linejoin="round"/>
<path d="M4.41223 19.6874L6.8698 14.2105C7.09651 13.6091 7.50117 13.0911 8.02982 12.7255C8.55846 12.36 9.18599 12.1642 9.82872 12.1644H10.7991" stroke="#222223" stroke-width="1.8" stroke-linecap="round" stroke-linejoin="round"/>
<path d="M2.37317 28.7341V31.1214C2.37317 31.6801 2.5951 32.2159 2.99015 32.6109C3.38519 33.006 3.92098 33.2279 4.47966 33.2279C5.03833 33.2279 5.57413 33.006 5.96917 32.6109C6.36421 32.2159 6.58615 31.6801 6.58615 31.1214V29.0149" stroke="#222223" stroke-width="1.8" stroke-linecap="round" stroke-linejoin="round"/>
<path d="M29.7574 28.7341V31.1214C29.7574 31.6801 29.5355 32.2159 29.1404 32.6109C28.7454 33.006 28.2096 33.2279 27.6509 33.2279C27.0922 33.2279 26.5565 33.006 26.1614 32.6109C25.7664 32.2159 25.5444 31.6801 25.5444 31.1214V29.0149" stroke="#222223" stroke-width="1.8" stroke-linecap="round" stroke-linejoin="round"/>
<path d="M26.071 23.7501C26.2107 23.7501 26.3447 23.8056 26.4434 23.9043C26.5422 24.0031 26.5977 24.137 26.5977 24.2767" stroke="#222223" stroke-width="1.8" stroke-linecap="round" stroke-linejoin="round"/>
<path d="M25.5444 24.2767C25.5444 24.137 25.5999 24.0031 25.6987 23.9043C25.7974 23.8056 25.9314 23.7501 26.0711 23.7501" stroke="#222223" stroke-width="1.8" stroke-linecap="round" stroke-linejoin="round"/>
<path d="M26.0711 24.8033C25.9314 24.8033 25.7974 24.7478 25.6987 24.6491C25.5999 24.5503 25.5444 24.4164 25.5444 24.2767" stroke="#222223" stroke-width="1.8" stroke-linecap="round" stroke-linejoin="round"/>
<path d="M26.5977 24.2767C26.5977 24.4164 26.5422 24.5503 26.4434 24.6491C26.3447 24.7478 26.2107 24.8033 26.071 24.8033" stroke="#222223" stroke-width="1.8" stroke-linecap="round" stroke-linejoin="round"/>
<path d="M6.05946 23.7501C5.91979 23.7501 5.78584 23.8056 5.68708 23.9043C5.58832 24.0031 5.53284 24.137 5.53284 24.2767" stroke="#222223" stroke-width="1.8" stroke-linecap="round" stroke-linejoin="round"/>
<path d="M6.58607 24.2767C6.58607 24.137 6.53059 24.0031 6.43183 23.9043C6.33307 23.8056 6.19912 23.7501 6.05945 23.7501" stroke="#222223" stroke-width="1.8" stroke-linecap="round" stroke-linejoin="round"/>
<path d="M6.05945 24.8033C6.19912 24.8033 6.33307 24.7478 6.43183 24.6491C6.53059 24.5503 6.58607 24.4164 6.58607 24.2767" stroke="#222223" stroke-width="1.8" stroke-linecap="round" stroke-linejoin="round"/>
<path d="M5.53284 24.2767C5.53284 24.4164 5.58832 24.5503 5.68708 24.6491C5.78584 24.7478 5.91979 24.8033 6.05946 24.8033" stroke="#222223" stroke-width="1.8" stroke-linecap="round" stroke-linejoin="round"/>
<path d="M15.012 19.537H5.5328C4.41545 19.537 3.34386 19.9809 2.55378 20.771C1.76369 21.5611 1.31982 22.6327 1.31982 23.75V26.9098C1.31982 27.4684 1.54176 28.0042 1.9368 28.3993C2.33184 28.7943 2.86764 29.0162 3.42631 29.0162H28.7042C29.2629 29.0162 29.7987 28.7943 30.1937 28.3993C30.5887 28.0042 30.8107 27.4684 30.8107 26.9098V23.75C30.813 23.0105 30.6192 22.2837 30.2489 21.6435" stroke="#222223" stroke-width="1.8" stroke-linecap="round" stroke-linejoin="round"/>
</svg>
