<svg width="28" height="28" viewBox="0 0 28 28" fill="none" xmlns="http://www.w3.org/2000/svg">
<path d="M3.86887 18.0298C5.28526 18.0298 6.43348 16.1161 6.43348 13.7555C6.43348 11.3948 5.28526 9.48114 3.86887 9.48114C2.45247 9.48114 1.30426 11.3948 1.30426 13.7555C1.30426 16.1161 2.45247 18.0298 3.86887 18.0298Z" stroke="#222223" stroke-width="1.8" stroke-linecap="round" stroke-linejoin="round"/>
<path d="M9.85297 9.48113C11.2694 9.48113 12.4176 7.56744 12.4176 5.20678C12.4176 2.84612 11.2694 0.932434 9.85297 0.932434C8.43658 0.932434 7.28836 2.84612 7.28836 5.20678C7.28836 7.56744 8.43658 9.48113 9.85297 9.48113Z" stroke="#222223" stroke-width="1.8" stroke-linecap="round" stroke-linejoin="round"/>
<path d="M24.3857 17.1749C25.8021 17.1749 26.9504 15.2613 26.9504 12.9006C26.9504 10.5399 25.8021 8.62625 24.3857 8.62625C22.9694 8.62625 21.8211 10.5399 21.8211 12.9006C21.8211 15.2613 22.9694 17.1749 24.3857 17.1749Z" stroke="#222223" stroke-width="1.8" stroke-linecap="round" stroke-linejoin="round"/>
<path d="M18.4017 9.48113C19.8181 9.48113 20.9663 7.56744 20.9663 5.20678C20.9663 2.84612 19.8181 0.932434 18.4017 0.932434C16.9853 0.932434 15.8371 2.84612 15.8371 5.20678C15.8371 7.56744 16.9853 9.48113 18.4017 9.48113Z" stroke="#222223" stroke-width="1.8" stroke-linecap="round" stroke-linejoin="round"/>
<path d="M19.0559 17.9193C18.8396 17.7505 18.6669 17.5323 18.5523 17.283C18.4376 17.0337 18.3844 16.7606 18.3971 16.4865V16.3201C18.3971 15.1865 17.9468 14.0993 17.1452 13.2977C16.3436 12.4961 15.2564 12.0457 14.1228 12.0457C12.9891 12.0457 11.9019 12.4961 11.1003 13.2977C10.2987 14.0993 9.84841 15.1865 9.84841 16.3201V16.4865C9.86167 16.7607 9.80872 17.034 9.69405 17.2834C9.57938 17.5328 9.40635 17.7509 9.18959 17.9193C8.62233 18.3216 8.15563 18.8495 7.82585 19.4618C7.49608 20.0741 7.31214 20.7543 7.28836 21.4493C7.28836 24.2818 10.3499 26.5785 14.1273 26.5785C17.9047 26.5785 20.9663 24.2818 20.9663 21.4493C20.9415 20.7535 20.7561 20.0728 20.4247 19.4605C20.0933 18.8481 19.6249 18.3206 19.0559 17.9193V17.9193Z" stroke="#222223" stroke-width="1.8" stroke-linecap="round" stroke-linejoin="round"/>
</svg>
