<svg width="24" height="24" viewBox="0 0 24 24" fill="none" xmlns="http://www.w3.org/2000/svg">
<path d="M14.6653 22.2233L14.6768 22.2314C15.6784 22.8691 16.8676 23.1461 18.0479 23.0164C19.2282 22.8868 20.3289 22.3584 21.1682 21.5185L21.8973 20.7894C22.0589 20.6279 22.1871 20.4362 22.2745 20.2252C22.362 20.0141 22.407 19.7879 22.407 19.5595C22.407 19.3311 22.362 19.1049 22.2745 18.8939C22.1871 18.6828 22.0589 18.4911 21.8973 18.3296L18.822 15.2567C18.6606 15.0951 18.4688 14.9669 18.2578 14.8795C18.0468 14.792 17.8206 14.747 17.5922 14.747C17.3637 14.747 17.1375 14.792 16.9265 14.8795C16.7155 14.9669 16.5238 15.0951 16.3623 15.2567C16.0362 15.5826 15.594 15.7657 15.133 15.7657C14.6719 15.7657 14.2297 15.5826 13.9037 15.2567L8.98647 10.3383C8.66051 10.0122 8.47739 9.57005 8.47739 9.109C8.47739 8.64794 8.66051 8.20576 8.98647 7.8797C9.14805 7.71822 9.27623 7.5265 9.36368 7.31547C9.45113 7.10444 9.49614 6.87825 9.49614 6.64982C9.49614 6.42139 9.45113 6.19519 9.36368 5.98417C9.27623 5.77314 9.14805 5.58141 8.98647 5.41994L5.91235 2.34698C5.58629 2.02101 5.14411 1.83789 4.68305 1.83789C4.222 1.83789 3.77982 2.02101 3.45375 2.34698L2.72347 3.07609C1.88376 3.91554 1.35556 5.01635 1.22615 6.19662C1.09674 7.37689 1.37387 8.566 2.01174 9.56745L2.0187 9.57904C5.38746 14.5632 9.68045 18.8554 14.6653 22.2233V22.2233Z" stroke="#fb8722" stroke-width="1.8" stroke-linecap="round" stroke-linejoin="round"/>
</svg>
