<svg width="24" height="25" viewBox="0 0 24 25" fill="none" xmlns="http://www.w3.org/2000/svg">
<path d="M9.33333 12.6668C9.33333 13.2796 9.45404 13.8865 9.68856 14.4526C9.92308 15.0188 10.2668 15.5333 10.7002 15.9666C11.1335 16.4 11.648 16.7437 12.2141 16.9782C12.7803 17.2127 13.3872 17.3335 14 17.3335C14.6128 17.3335 15.2197 17.2127 15.7859 16.9782C16.352 16.7437 16.8665 16.4 17.2998 15.9666C17.7332 15.5333 18.0769 15.0188 18.3114 14.4526C18.546 13.8865 18.6667 13.2796 18.6667 12.6668C18.6667 12.054 18.546 11.4471 18.3114 10.8809C18.0769 10.3147 17.7332 9.8003 17.2998 9.36696C16.8665 8.93362 16.352 8.58987 15.7859 8.35535C15.2197 8.12083 14.6128 8.00012 14 8.00012C13.3872 8.00012 12.7803 8.12083 12.2141 8.35535C11.648 8.58987 11.1335 8.93362 10.7002 9.36696C10.2668 9.8003 9.92308 10.3147 9.68856 10.8809C9.45404 11.4471 9.33333 12.054 9.33333 12.6668V12.6668Z" stroke="#222223" stroke-width="2" stroke-linecap="square"/>
<path d="M18.6667 6.66679L16.7924 4.00011L11.4907 4.00012L9.33333 6.66679H1.99989C1.99989 6.66679 2 7.6465 2 8.00012V18.6668C2 19.0204 2.0001 19.5853 2.0001 19.5853L2.00006 20.0001H22V18.6668V8.00012C22 7.6465 22 6.66679 22 6.66679H18.6667Z" stroke="#222223" stroke-width="2" stroke-linecap="square"/>
<path d="M5.11111 9.33346C5.24296 9.33346 5.37186 9.37256 5.48149 9.44581C5.59112 9.51907 5.67657 9.62319 5.72703 9.745C5.77749 9.86682 5.79069 10.0009 5.76497 10.1302C5.73924 10.2595 5.67575 10.3783 5.58251 10.4715C5.48928 10.5648 5.37049 10.6283 5.24117 10.654C5.11185 10.6797 4.9778 10.6665 4.85599 10.616C4.73417 10.5656 4.63005 10.4801 4.5568 10.3705C4.48354 10.2609 4.44444 10.132 4.44444 10.0001C4.44444 9.82331 4.51468 9.65374 4.6397 9.52872C4.76473 9.4037 4.9343 9.33346 5.11111 9.33346Z" fill="#222223" stroke="#222223" stroke-width="2" stroke-linecap="square"/>
<path d="M6 6.66679V5.33346" stroke="#222223" stroke-width="2" stroke-linecap="square"/>
</svg>
