<svg width="30" height="31" viewBox="0 0 30 31" fill="none" xmlns="http://www.w3.org/2000/svg">
<path d="M6.94409 1.50873H23.3044C23.6382 1.50873 23.9583 1.64132 24.1943 1.87733C24.4303 2.11334 24.5629 2.43344 24.5629 2.76721V29.8247H5.68561V2.76721C5.68561 2.43344 5.8182 2.11334 6.05421 1.87733C6.29022 1.64132 6.61032 1.50873 6.94409 1.50873Z" stroke="#222223" stroke-width="2" stroke-linecap="round" stroke-linejoin="round"/>
<path d="M19.8436 15.1948C19.9685 15.1948 20.0883 15.2444 20.1767 15.3327C20.265 15.4211 20.3146 15.5409 20.3146 15.6658" stroke="#222223" stroke-width="2" stroke-linecap="round" stroke-linejoin="round"/>
<path d="M19.3716 15.6658C19.3716 15.5409 19.4213 15.4211 19.5096 15.3327C19.5979 15.2444 19.7178 15.1948 19.8427 15.1948" stroke="#222223" stroke-width="2" stroke-linecap="round" stroke-linejoin="round"/>
<path d="M19.8427 16.1378C19.7178 16.1378 19.5979 16.0881 19.5096 15.9998C19.4213 15.9115 19.3716 15.7916 19.3716 15.6667" stroke="#222223" stroke-width="2" stroke-linecap="round" stroke-linejoin="round"/>
<path d="M20.3146 15.6667C20.3146 15.7916 20.265 15.9115 20.1767 15.9998C20.0883 16.0881 19.9685 16.1378 19.8436 16.1378" stroke="#222223" stroke-width="2" stroke-linecap="round" stroke-linejoin="round"/>
<path d="M1.91016 29.8246H28.3384" stroke="#222223" stroke-width="2" stroke-linecap="round" stroke-linejoin="round"/>
</svg>
