<svg width="24" height="22" viewBox="0 0 24 22" fill="none" xmlns="http://www.w3.org/2000/svg">
<path d="M3.95312 12.8337V20.9304H9.84163V15.0419C9.84163 14.6515 9.99673 14.2771 10.2728 14.001C10.5489 13.7249 10.9233 13.5698 11.3138 13.5698H12.7859C13.1763 13.5698 13.5508 13.7249 13.8268 14.001C14.1029 14.2771 14.258 14.6515 14.258 15.0419V20.9304H20.1465V12.8337" stroke="rgba(248, 87, 87, 1)" stroke-width="1.6" stroke-linecap="round" stroke-linejoin="round"/>
<path d="M1.00879 11.3616L11.0085 1.36193C11.1452 1.22513 11.3075 1.11661 11.4862 1.04257C11.6648 0.968529 11.8563 0.93042 12.0497 0.93042C12.2431 0.93042 12.4346 0.968529 12.6133 1.04257C12.792 1.11661 12.9543 1.22513 13.091 1.36193L23.0907 11.3616" stroke="rgba(248, 87, 87, 1)" stroke-width="1.6" stroke-linecap="round" stroke-linejoin="round"/>
</svg>
