<svg width="28" height="27" viewBox="0 0 28 27" fill="none" xmlns="http://www.w3.org/2000/svg">
<path d="M20.6858 20.1616L26.113 25.5888" stroke="" stroke-width="2" stroke-linecap="round" stroke-linejoin="round"/>
<path d="M1.93628 12.1257C1.93628 13.5327 2.21342 14.926 2.75187 16.2259C3.29033 17.5259 4.07956 18.707 5.07449 19.702C6.06943 20.6969 7.25059 21.4861 8.55053 22.0246C9.85048 22.563 11.2438 22.8402 12.6508 22.8402C14.0579 22.8402 15.4511 22.563 16.7511 22.0246C18.051 21.4861 19.2322 20.6969 20.2271 19.702C21.2221 18.707 22.0113 17.5259 22.5497 16.2259C23.0882 14.926 23.3653 13.5327 23.3653 12.1257C23.3653 9.28399 22.2365 6.55871 20.2271 4.54934C18.2178 2.53998 15.4925 1.41113 12.6508 1.41113C9.80914 1.41113 7.08385 2.53998 5.07449 4.54934C3.06513 6.55871 1.93628 9.28399 1.93628 12.1257V12.1257Z" stroke="" stroke-width="2" stroke-linecap="round" stroke-linejoin="round"/>
</svg>
