<svg width="33" height="26" viewBox="0 0 33 26" fill="none" xmlns="http://www.w3.org/2000/svg">
<path d="M31.4706 5.69801L23.8529 8.23723V5.69801C23.8529 4.68785 23.4516 3.71906 22.7373 3.00477C22.0231 2.29048 21.0543 1.88919 20.0441 1.88919H4.80882C3.79866 1.88919 2.82987 2.29048 2.11558 3.00477C1.40128 3.71906 1 4.68785 1 5.69801V20.9333C1 21.9435 1.40128 22.9122 2.11558 23.6265C2.82987 24.3408 3.79866 24.7421 4.80882 24.7421H20.0441C21.0543 24.7421 22.0231 24.3408 22.7373 23.6265C23.4516 22.9122 23.8529 21.9435 23.8529 20.9333V18.3941L31.4706 20.9333V5.69801Z" fill="white" stroke="#222223" stroke-width="2" stroke-linecap="round" stroke-linejoin="round"/>
</svg>
