<svg width="28" height="28" viewBox="0 0 28 28" fill="none" xmlns="http://www.w3.org/2000/svg">
<path d="M7.20864 17.2518C8.63077 17.2518 9.78364 16.0989 9.78364 14.6768C9.78364 13.2547 8.63077 12.1018 7.20864 12.1018C5.7865 12.1018 4.63364 13.2547 4.63364 14.6768C4.63364 16.0989 5.7865 17.2518 7.20864 17.2518Z" stroke="#222223" stroke-width="1.7" stroke-linecap="round" stroke-linejoin="round"/>
<path d="M7.20864 8.66847C8.15673 8.66847 8.92531 7.89989 8.92531 6.9518C8.92531 6.00372 8.15673 5.23514 7.20864 5.23514C6.26055 5.23514 5.49197 6.00372 5.49197 6.9518C5.49197 7.89989 6.26055 8.66847 7.20864 8.66847Z" stroke="#222223" stroke-width="1.7" stroke-linecap="round" stroke-linejoin="round"/>
<path d="M10.9281 0.943481H3.48921C2.22509 0.943481 1.20032 1.96825 1.20032 3.23237V18.3963C1.20032 19.6604 2.22509 20.6851 3.48921 20.6851H10.9281C12.1922 20.6851 13.217 19.6604 13.217 18.3963V3.23237C13.217 1.96825 12.1922 0.943481 10.9281 0.943481Z" stroke="#222223" stroke-width="1.7" stroke-linecap="round" stroke-linejoin="round"/>
<path d="M7.20865 20.6852V26.6935" stroke="#222223" stroke-width="1.7" stroke-linecap="round" stroke-linejoin="round"/>
<path d="M4.63364 26.6935H9.78364" stroke="#222223" stroke-width="1.7" stroke-linecap="round" stroke-linejoin="round"/>
<path d="M20.942 17.2518C22.3641 17.2518 23.517 16.0989 23.517 14.6768C23.517 13.2547 22.3641 12.1018 20.942 12.1018C19.5198 12.1018 18.367 13.2547 18.367 14.6768C18.367 16.0989 19.5198 17.2518 20.942 17.2518Z" stroke="#222223" stroke-width="1.7" stroke-linecap="round" stroke-linejoin="round"/>
<path d="M20.942 8.66847C21.8901 8.66847 22.6586 7.89989 22.6586 6.9518C22.6586 6.00372 21.8901 5.23514 20.942 5.23514C19.9939 5.23514 19.2253 6.00372 19.2253 6.9518C19.2253 7.89989 19.9939 8.66847 20.942 8.66847Z" stroke="#222223" stroke-width="1.7" stroke-linecap="round" stroke-linejoin="round"/>
<path d="M15.9396 1.94945C16.258 1.63016 16.6364 1.37692 17.0529 1.20428C17.4695 1.03165 17.9161 0.943017 18.367 0.943483H23.517C24.4275 0.943483 25.3008 1.30521 25.9447 1.94908C26.5886 2.59296 26.9503 3.46624 26.9503 4.37682V17.2518C26.9503 18.1624 26.5886 19.0357 25.9447 19.6796C25.3008 20.3234 24.4275 20.6852 23.517 20.6852H18.367C17.9161 20.6856 17.4695 20.597 17.0529 20.4243C16.6364 20.2517 16.258 19.9985 15.9396 19.6792" stroke="#222223" stroke-width="1.7" stroke-linecap="round" stroke-linejoin="round"/>
<path d="M20.942 20.6852V26.6935" stroke="#222223" stroke-width="1.7" stroke-linecap="round" stroke-linejoin="round"/>
<path d="M18.367 26.6935H23.517" stroke="#222223" stroke-width="1.7" stroke-linecap="round" stroke-linejoin="round"/>
</svg>
