<svg width="35" height="20" viewBox="0 0 35 20" fill="none" xmlns="http://www.w3.org/2000/svg">
<path d="M1.35535 5.30399H0.393364C0.393364 5.83528 0.824058 6.26598 1.35535 6.26598L1.35535 5.30399ZM32.1762 5.30399V6.26598C32.7075 6.26598 33.1382 5.83528 33.1382 5.30399H32.1762ZM6.55753 18.6597C6.55753 19.191 6.98822 19.6217 7.51951 19.6217C8.0508 19.6217 8.48149 19.191 8.48149 18.6597H6.55753ZM31.0834 5.30399C31.0834 4.7727 30.6527 4.34201 30.1215 4.34201C29.5902 4.34201 29.1595 4.7727 29.1595 5.30399H31.0834ZM29.1595 18.6597C29.1595 19.191 29.5902 19.6217 30.1215 19.6217C30.6527 19.6217 31.0834 19.191 31.0834 18.6597H29.1595ZM4.43743 12.5609C3.90614 12.5609 3.47545 12.9916 3.47545 13.5229C3.47545 14.0542 3.90614 14.4849 4.43743 14.4849V12.5609ZM33.2035 14.4849C33.7348 14.4849 34.1655 14.0542 34.1655 13.5229C34.1655 12.9916 33.7348 12.5609 33.2035 12.5609V14.4849ZM4.43743 8.45145C3.90614 8.45145 3.47545 8.88215 3.47545 9.41344C3.47545 9.94473 3.90614 10.3754 4.43743 10.3754V8.45145ZM7.51951 10.3754C8.0508 10.3754 8.48149 9.94473 8.48149 9.41344C8.48149 8.88215 8.0508 8.45145 7.51951 8.45145V10.3754ZM33.2035 10.3754C33.7348 10.3754 34.1655 9.94473 34.1655 9.41344C34.1655 8.88215 33.7348 8.45145 33.2035 8.45145V10.3754ZM7.51951 4.34201H1.35535V6.26598H7.51951V4.34201ZM2.31733 5.30399V3.24927H0.393364V5.30399H2.31733ZM2.31733 3.24927C2.31733 2.64635 2.80715 2.15653 3.41007 2.15653V0.232567C1.74457 0.232567 0.393364 1.58378 0.393364 3.24927H2.31733ZM3.41007 2.15653H5.46479V0.232567H3.41007V2.15653ZM5.46479 2.15653C6.06771 2.15653 6.55753 2.64635 6.55753 3.24927H8.48149C8.48149 1.58378 7.13029 0.232567 5.46479 0.232567V2.15653ZM6.55753 3.24927V5.30399H8.48149V3.24927H6.55753ZM32.1762 4.34201H7.51951V6.26598H32.1762V4.34201ZM8.48149 3.24927C8.48149 2.64635 8.97132 2.15653 9.57423 2.15653V0.232567C7.90874 0.232567 6.55753 1.58378 6.55753 3.24927H8.48149ZM9.57423 2.15653H30.1215V0.232567H9.57423V2.15653ZM30.1215 2.15653C30.7244 2.15653 31.2142 2.64635 31.2142 3.24927H33.1382C33.1382 1.58378 31.7869 0.232567 30.1215 0.232567V2.15653ZM31.2142 3.24927V5.30399H33.1382V3.24927H31.2142ZM6.55753 5.30399V18.6597H8.48149V5.30399H6.55753ZM29.1595 5.30399V18.6597H31.0834V5.30399H29.1595ZM4.43743 14.4849H33.2035V12.5609H4.43743V14.4849ZM4.43743 10.3754H7.51951V8.45145H4.43743V10.3754ZM30.1215 10.3754H33.2035V8.45145H30.1215V10.3754Z" fill="#222223"/>
</svg>
