<svg width="31" height="31" viewBox="0 0 31 31" fill="none" xmlns="http://www.w3.org/2000/svg">
<path d="M8.16153 20.1463H4.96246C3.9536 20.1463 2.98607 19.7455 2.2727 19.0322C1.55934 18.3188 1.15857 17.3513 1.15857 16.3424V13.4895C1.15857 5.61165 7.5453 1.12686 15.4232 1.12686C23.301 1.12686 29.6877 5.61165 29.6877 13.4895V16.3424C29.6877 17.3513 29.287 18.3188 28.5736 19.0322C27.8602 19.7455 26.8927 20.1463 25.8838 20.1463H22.6848" stroke="#222223" stroke-width="1.8" stroke-linecap="round" stroke-linejoin="round"/>
<path d="M21.129 27.7541L22.8268 19.3652C22.8519 19.2282 22.8465 19.0872 22.8111 18.9525C22.7756 18.8177 22.711 18.6924 22.6217 18.5854C22.5324 18.4785 22.4206 18.3924 22.2943 18.3335C22.1681 18.2746 22.0304 18.2441 21.891 18.2444H8.95653C8.81718 18.2441 8.67948 18.2746 8.55321 18.3335C8.42694 18.3924 8.31519 18.4785 8.22588 18.5854C8.13657 18.6924 8.0719 18.8177 8.03646 18.9525C8.00101 19.0872 7.99566 19.2282 8.02077 19.3652L9.71731 27.7541" stroke="#222223" stroke-width="1.8" stroke-linecap="round" stroke-linejoin="round"/>
<path d="M12.5702 18.2444L13.5212 29.656" stroke="#222223" stroke-width="1.8" stroke-linecap="round" stroke-linejoin="round"/>
<path d="M18.2761 18.2444L17.3251 29.656" stroke="#222223" stroke-width="1.8" stroke-linecap="round" stroke-linejoin="round"/>
<path d="M8.56219 22.0482H22.2841" stroke="#222223" stroke-width="1.8" stroke-linecap="round" stroke-linejoin="round"/>
<path d="M9.33188 25.8521H21.5145" stroke="#222223" stroke-width="1.8" stroke-linecap="round" stroke-linejoin="round"/>
<path d="M20.812 6.8327H10.0343C9.33404 6.8327 8.76636 7.40039 8.76636 8.10067V13.1725C8.76636 13.8728 9.33404 14.4405 10.0343 14.4405H20.812C21.5123 14.4405 22.08 13.8728 22.08 13.1725V8.10067C22.08 7.40039 21.5123 6.8327 20.812 6.8327Z" stroke="#222223" stroke-width="1.8" stroke-linecap="round" stroke-linejoin="round"/>
</svg>
