<svg width="17" height="17" viewBox="0 0 17 17" fill="none" xmlns="http://www.w3.org/2000/svg">
<path d="M14.2393 1.10767L15.8418 2.71025C15.887 2.75538 15.9229 2.80898 15.9474 2.86799C15.9718 2.92699 15.9844 2.99024 15.9844 3.05412C15.9844 3.11799 15.9718 3.18124 15.9474 3.24025C15.9229 3.29925 15.887 3.35286 15.8418 3.39799L14.2393 5.00057" stroke="#B7B7B7" stroke-width="1.2" stroke-linecap="round" stroke-linejoin="round"/>
<path d="M3.33203 15.7061V4.02743C3.33203 3.76931 3.43457 3.52177 3.61708 3.33925C3.7996 3.15674 4.04714 3.0542 4.30526 3.0542H15.984" stroke="#B7B7B7" stroke-width="1.2" stroke-linecap="round" stroke-linejoin="round"/>
<path d="M5.27865 13.9614L3.67672 15.5634C3.63153 15.6086 3.57787 15.6444 3.51881 15.6689C3.45975 15.6934 3.39645 15.706 3.33252 15.706C3.26859 15.706 3.20529 15.6934 3.14623 15.6689C3.08717 15.6444 3.03351 15.6086 2.98832 15.5634L1.38574 13.9614" stroke="#B7B7B7" stroke-width="1.2" stroke-linecap="round" stroke-linejoin="round"/>
<path d="M15.0107 15.7061C15.2689 15.7061 15.5164 15.6036 15.6989 15.4211C15.8814 15.2386 15.984 14.991 15.984 14.7329" stroke="#B7B7B7" stroke-width="1.2" stroke-linecap="round" stroke-linejoin="round"/>
<path d="M13.065 15.7061H12.0918" stroke="#B7B7B7" stroke-width="1.2" stroke-linecap="round" stroke-linejoin="round"/>
<path d="M10.1451 15.7061H9.17188" stroke="#B7B7B7" stroke-width="1.2" stroke-linecap="round" stroke-linejoin="round"/>
<path d="M7.22518 15.7061H6.25195" stroke="#B7B7B7" stroke-width="1.2" stroke-linecap="round" stroke-linejoin="round"/>
<path d="M15.9844 12.7865V11.8132" stroke="#B7B7B7" stroke-width="1.2" stroke-linecap="round" stroke-linejoin="round"/>
<path d="M15.9844 9.86678V8.89355" stroke="#B7B7B7" stroke-width="1.2" stroke-linecap="round" stroke-linejoin="round"/>
<path d="M15.9844 6.94686V5.97363" stroke="#B7B7B7" stroke-width="1.2" stroke-linecap="round" stroke-linejoin="round"/>
</svg>
