<svg width="18" height="15" viewBox="0 0 18 15" fill="none" xmlns="http://www.w3.org/2000/svg">
<path d="M11.4303 0.696411V0.693359H12.225L12.5153 0.751348C12.7089 0.788995 12.8846 0.838331 13.0425 0.899371C13.2004 0.960412 13.3532 1.03163 13.5009 1.11301C13.6487 1.1944 13.7826 1.27732 13.9029 1.36175C14.022 1.44518 14.129 1.53369 14.2238 1.62728C14.3175 1.72189 14.4637 1.74631 14.6623 1.70053C14.861 1.65475 15.0749 1.59116 15.3041 1.50978C15.5333 1.42839 15.76 1.33683 15.9841 1.23509C16.2083 1.13335 16.3448 1.06876 16.3937 1.04129C16.4416 1.01281 16.467 0.997555 16.4701 0.99551L16.4731 0.990932L16.4884 0.983302L16.5037 0.975672L16.519 0.968042L16.5343 0.960412L16.5373 0.955834L16.5419 0.952781L16.5465 0.949729L16.5495 0.945151L16.5648 0.940573L16.5801 0.937521L16.5771 0.960412L16.5725 0.983302L16.5648 1.00619L16.5572 1.02908L16.5495 1.04434L16.5419 1.0596L16.5343 1.08249C16.5292 1.09775 16.5241 1.11809 16.519 1.14353C16.5139 1.16897 16.4655 1.2707 16.3738 1.44874C16.2821 1.62678 16.1675 1.80735 16.03 1.99047C15.8925 2.17359 15.7692 2.31194 15.6602 2.40555C15.5502 2.50016 15.4773 2.56628 15.4417 2.60393C15.406 2.64258 15.3627 2.67818 15.3118 2.71075L15.2354 2.76111L15.2201 2.76874L15.2048 2.77637L15.2018 2.78094L15.1972 2.784L15.1926 2.78705L15.1895 2.79163L15.1742 2.79926L15.159 2.80689L15.1559 2.81146L15.1513 2.81452L15.1467 2.81757L15.1437 2.82215L15.1406 2.82672L15.136 2.82978L15.1314 2.83283L15.1284 2.83741H15.2048L15.6327 2.74585C15.9179 2.68481 16.1904 2.61105 16.4502 2.52457L16.8628 2.38723L16.9087 2.37197L16.9316 2.36434L16.9469 2.35671L16.9621 2.34908L16.9774 2.34145L16.9927 2.33382L17.0233 2.32924L17.0538 2.32619V2.35671L17.0462 2.35976L17.0385 2.36434L17.0355 2.36892L17.0309 2.37197L17.0263 2.37503L17.0233 2.3796L17.0202 2.38418L17.0156 2.38723L17.011 2.39029L17.008 2.39486L17.0049 2.39944L17.0003 2.40249L16.9927 2.41775L16.9851 2.43301L16.9805 2.43607C16.9784 2.43912 16.9138 2.52558 16.7864 2.69549C16.6591 2.8664 16.5903 2.95286 16.5801 2.95491C16.5699 2.95796 16.5557 2.97322 16.5373 3.00069C16.52 3.02917 16.412 3.14261 16.2134 3.34099C16.0147 3.53937 15.8201 3.71587 15.6296 3.87052C15.4381 4.02617 15.3413 4.21743 15.3393 4.4443C15.3362 4.67015 15.3245 4.92551 15.3041 5.21036C15.2838 5.49522 15.2456 5.80295 15.1895 6.13359C15.1335 6.46423 15.0469 6.83811 14.9297 7.25521C14.8126 7.67232 14.67 8.07926 14.5019 8.47602C14.3338 8.87279 14.158 9.22885 13.9747 9.54423C13.7913 9.85961 13.6232 10.1267 13.4704 10.3454C13.3176 10.5641 13.1622 10.7701 13.0043 10.9634C12.8464 11.1567 12.6467 11.3744 12.4053 11.6166C12.1628 11.8577 12.0304 11.9899 12.008 12.0133C11.9846 12.0357 11.8847 12.1191 11.7085 12.2636C11.5332 12.4091 11.3448 12.5545 11.143 12.7C10.9424 12.8445 10.758 12.965 10.5899 13.0617C10.4218 13.1583 10.2191 13.2687 9.98167 13.3928C9.74533 13.518 9.48962 13.6339 9.21455 13.7408C8.93949 13.8476 8.64915 13.9468 8.34352 14.0383C8.0379 14.1299 7.74247 14.2011 7.45721 14.252C7.17197 14.3028 6.84851 14.3461 6.48685 14.3817L5.94437 14.4351V14.4427H4.95109V14.4351L4.8212 14.4275C4.73461 14.4224 4.6633 14.4173 4.60726 14.4122C4.55124 14.4071 4.33984 14.3791 3.97309 14.3283C3.60634 14.2774 3.31855 14.2265 3.1097 14.1757C2.90086 14.1248 2.59014 14.0282 2.17754 13.8857C1.76495 13.7433 1.41195 13.5994 1.11855 13.4539C0.826176 13.3094 0.642801 13.2178 0.568427 13.1792C0.495077 13.1415 0.412558 13.0948 0.320871 13.0388L0.18334 12.9549L0.180299 12.9503L0.175699 12.9472L0.171115 12.9442L0.168059 12.9396L0.152777 12.932L0.137496 12.9243L0.134455 12.9198L0.129855 12.9167L0.125271 12.9137L0.122215 12.9091L0.119174 12.9045L0.114574 12.9015H0.106934V12.8709L0.122215 12.874L0.137496 12.8786L0.206262 12.8862C0.252105 12.8913 0.376907 12.8989 0.580652 12.9091C0.784412 12.9193 1.00089 12.9193 1.2301 12.9091C1.45932 12.8989 1.69365 12.876 1.93304 12.8404C2.17245 12.8048 2.45516 12.7438 2.78115 12.6573C3.10716 12.5708 3.40667 12.4681 3.6797 12.349C3.95171 12.229 4.14526 12.1395 4.26039 12.0805C4.37448 12.0225 4.54869 11.9146 4.78299 11.7569L5.13446 11.5204L5.13752 11.5158L5.1421 11.5128L5.1467 11.5097L5.14974 11.5052L5.1528 11.5006L5.15738 11.4975L5.16198 11.4945L5.16502 11.4899L5.18031 11.4853L5.19559 11.4823L5.19864 11.467L5.20323 11.4517L5.20783 11.4487L5.21087 11.4441L5.08862 11.4365C5.00712 11.4314 4.92816 11.4263 4.85176 11.4212C4.77535 11.4161 4.65565 11.3933 4.49265 11.3526C4.32966 11.3119 4.15393 11.2508 3.96545 11.1694C3.77698 11.0881 3.59361 10.9914 3.41532 10.8795C3.23705 10.7676 3.10817 10.6745 3.02871 10.6002C2.95027 10.527 2.84839 10.4232 2.72308 10.2889C2.5988 10.1536 2.49081 10.0147 2.39912 9.87232C2.30743 9.7299 2.21982 9.56558 2.1363 9.37942L2.00945 9.10169L2.00181 9.0788L1.99417 9.05591L1.98958 9.04065L1.98653 9.02539L2.00945 9.02844L2.03237 9.03302L2.20046 9.05591C2.31254 9.07117 2.48827 9.07625 2.72767 9.07117C2.96708 9.06609 3.13262 9.05591 3.22431 9.04065C3.31599 9.02539 3.37203 9.01521 3.3924 9.01013L3.42296 9.0025L3.46117 8.99487L3.49937 8.98724L3.50243 8.98266L3.50701 8.97961L3.51161 8.97655L3.51465 8.97198L3.48409 8.96435L3.45353 8.95672L3.42296 8.94909L3.3924 8.94146L3.36184 8.93383C3.34147 8.92875 3.30582 8.91857 3.25487 8.90331C3.20394 8.88805 3.06641 8.83209 2.84228 8.73545C2.61816 8.6388 2.43987 8.54469 2.30743 8.45313C2.17466 8.36131 2.04806 8.26088 1.92846 8.15251C1.80926 8.04263 1.67836 7.90122 1.53573 7.72828C1.39311 7.55533 1.26577 7.3544 1.1537 7.1255C1.04164 6.8966 0.957594 6.67788 0.901558 6.46932C0.845747 6.26198 0.808926 6.05001 0.791548 5.83602L0.764027 5.51556L0.779308 5.51861L0.794589 5.52319L0.809871 5.53082L0.825152 5.53845L0.840433 5.54608L0.855714 5.55371L1.09257 5.66053C1.25049 5.73175 1.44659 5.79279 1.6809 5.84365C1.91522 5.89451 2.05529 5.9225 2.10114 5.92758L2.1699 5.93521H2.30743L2.30439 5.93063L2.29979 5.92758L2.29521 5.92453L2.29215 5.91995L2.28911 5.91537L2.28451 5.91232L2.27993 5.90927L2.27687 5.90469L2.26159 5.89706L2.24631 5.88943L2.24327 5.88485L2.23867 5.8818L2.23408 5.87875L2.23103 5.87417L2.21574 5.86654L2.20046 5.85891L2.19742 5.85433C2.19437 5.85229 2.15055 5.81974 2.06599 5.75667C1.98245 5.69258 1.89484 5.60967 1.80315 5.50793C1.71146 5.40619 1.61978 5.29937 1.52809 5.18747C1.43623 5.07531 1.35442 4.95531 1.28359 4.82885C1.21229 4.70169 1.13689 4.53992 1.05743 4.34358C0.978988 4.14825 0.919391 3.9514 0.878636 3.75301C0.837896 3.55463 0.814975 3.3588 0.809871 3.1655C0.804782 2.9722 0.809871 2.80689 0.825152 2.66955C0.840433 2.5322 0.870996 2.37705 0.916839 2.20411C0.962683 2.03117 1.02891 1.84805 1.1155 1.65475L1.24539 1.3648L1.25303 1.34191L1.26067 1.31902L1.26527 1.31597L1.26831 1.31139L1.27136 1.30682L1.27595 1.30376L1.28055 1.30682L1.28359 1.31139L1.28665 1.31597L1.29123 1.31902L1.29583 1.32208L1.29887 1.32665L1.30193 1.33123L1.30651 1.33428L1.31415 1.34954L1.32179 1.3648L1.32639 1.36786L1.32943 1.37243L1.53573 1.60134C1.67326 1.75394 1.83627 1.92435 2.02473 2.11255C2.21321 2.30075 2.31762 2.39842 2.33799 2.40555C2.35838 2.41368 2.38384 2.43707 2.4144 2.47574C2.44496 2.51339 2.54684 2.60342 2.72003 2.74585C2.89322 2.88827 3.11989 3.0536 3.40004 3.2418C3.68021 3.43 3.99092 3.61567 4.3322 3.79879C4.67349 3.98192 5.04024 4.14723 5.43245 4.29475C5.82467 4.44227 6.09973 4.53891 6.25763 4.58469C6.41555 4.63047 6.68551 4.68896 7.06754 4.76018C7.44957 4.8314 7.73738 4.87718 7.93093 4.89752C8.1245 4.91787 8.25694 4.92957 8.32824 4.93262L8.43521 4.93567L8.43217 4.91278L8.42757 4.88989L8.39701 4.69914C8.37664 4.57198 8.36644 4.39394 8.36644 4.16504C8.36644 3.93614 8.38428 3.72504 8.41993 3.53174C8.4556 3.33844 8.50908 3.14261 8.58038 2.94423C8.6517 2.74585 8.72149 2.58662 8.78973 2.46659C8.85902 2.34756 8.94968 2.21174 9.06174 2.05914C9.17381 1.90654 9.31898 1.74886 9.49726 1.58608C9.67554 1.4233 9.87929 1.27833 10.1085 1.15116C10.3377 1.024 10.5491 0.927343 10.7427 0.861221C10.9362 0.795099 11.0992 0.751851 11.2317 0.73151C11.3641 0.711168 11.4303 0.699463 11.4303 0.696411Z" fill="white"/>
</svg>
