<svg width="30" height="20" viewBox="0 0 30 20" fill="none" xmlns="http://www.w3.org/2000/svg">
<path d="M3.13379 18.5342C2.02922 18.5342 1.13379 17.6387 1.13379 16.5342L1.13379 2.80017C1.13379 1.6956 2.02922 0.800166 3.13379 0.800166H26.7198C27.8243 0.800166 28.7198 1.6956 28.7198 2.80017V16.5342C28.7198 17.6387 27.8243 18.5342 26.7198 18.5342H3.13379Z" stroke="rgba(248, 87, 87, 1)" stroke-width="1.6" stroke-linecap="round" stroke-linejoin="round"/>
<path d="M17.3668 6.82036C16.8096 6.26317 15.8286 5.87599 14.9266 5.85158M14.9266 5.85158C13.8529 5.8223 12.6189 6.26977 12.6189 7.59563C12.6189 10.0359 17.3668 8.88436 17.3668 11.3246C17.3668 12.7163 16.176 13.2837 14.9266 13.239M14.9266 5.85158V13.239M14.9266 5.85158V4.38013M12.4863 12.1075C13.0102 12.807 13.9854 13.2056 14.9266 13.239M14.9266 13.239V14.9544" stroke="rgba(248, 87, 87, 1)" stroke-width="1.2" stroke-linecap="round" stroke-linejoin="round"/>
</svg>
