<svg width="32" height="32" viewBox="0 0 32 32" fill="none" xmlns="http://www.w3.org/2000/svg">
<path d="M6.78795 30.7823C9.4513 30.7823 11.6104 28.6233 11.6104 25.9599C11.6104 23.2966 9.4513 21.1375 6.78795 21.1375C4.12459 21.1375 1.96552 23.2966 1.96552 25.9599C1.96552 28.6233 4.12459 30.7823 6.78795 30.7823Z" stroke="#212121" stroke-width="2" stroke-linecap="round" stroke-linejoin="round"/>
<path d="M6.78797 25.4777C6.88335 25.4777 6.97658 25.506 7.05589 25.559C7.13519 25.612 7.197 25.6873 7.2335 25.7754C7.27 25.8635 7.27955 25.9605 7.26095 26.054C7.24234 26.1476 7.19641 26.2335 7.12897 26.3009C7.06152 26.3684 6.97559 26.4143 6.88205 26.4329C6.7885 26.4515 6.69154 26.442 6.60342 26.4055C6.5153 26.369 6.43999 26.3072 6.387 26.2279C6.33401 26.1486 6.30573 26.0553 6.30573 25.9599C6.30573 25.832 6.35653 25.7094 6.44697 25.6189C6.53741 25.5285 6.66007 25.4777 6.78797 25.4777Z" stroke="#212121" stroke-width="2" stroke-linecap="round" stroke-linejoin="round"/>
<path d="M11.6104 17.2795H7.75243C6.21765 17.2795 4.74572 17.8892 3.66046 18.9745C2.57521 20.0597 1.96552 21.5317 1.96552 23.0665V25.9599C1.96552 27.2389 2.47359 28.4655 3.37797 29.3699C4.28235 30.2743 5.50896 30.7823 6.78795 30.7823H19.3263C19.8379 30.7823 20.3285 30.5791 20.6903 30.2174C21.052 29.8556 21.2552 29.365 21.2552 28.8534V26.9244C21.2552 24.3664 20.2391 21.9132 18.4303 20.1045C16.6216 18.2957 14.1684 17.2795 11.6104 17.2795Z" stroke="#212121" stroke-width="2" stroke-linecap="round" stroke-linejoin="round"/>
<path d="M25.1132 26.9244H27.0422C28.0654 26.9244 29.0466 27.3309 29.7701 28.0544C30.4936 28.7779 30.9001 29.7592 30.9001 30.7824H27.0422C26.5306 30.7824 26.0399 30.5791 25.6782 30.2174C25.3164 29.8556 25.1132 29.365 25.1132 28.8534V26.9244Z" stroke="#212121" stroke-width="2" stroke-linecap="round" stroke-linejoin="round"/>
<path d="M25.1132 26.9244V6.67021C25.1132 5.39122 24.6051 4.16462 23.7007 3.26024C22.7963 2.35585 21.5697 1.84778 20.2908 1.84778C19.0118 1.84778 17.7852 2.35585 16.8808 3.26024C15.9764 4.16462 15.4683 5.39122 15.4683 6.67021C15.4683 9.56367 19.3263 10.5282 19.3263 13.4216C19.3263 15.0535 18.0994 17.2976 17.0295 18.9513" stroke="#212121" stroke-width="2" stroke-linecap="round" stroke-linejoin="round"/>
<path d="M15.4683 23.0665H20.4476" stroke="#212121" stroke-width="2" stroke-linecap="round" stroke-linejoin="round"/>
</svg>
