<svg width="28" height="33" viewBox="0 0 28 33" fill="none" xmlns="http://www.w3.org/2000/svg">
<path d="M23.45 1.75452H4.21972C2.70327 1.75452 1.47253 2.98526 1.47253 4.5017V29.2264C1.47253 30.7428 2.70327 31.9736 4.21972 31.9736H23.45C24.9665 31.9736 26.1972 30.7428 26.1972 29.2264V4.5017C26.1972 2.98526 24.9665 1.75452 23.45 1.75452Z" stroke="#222223" stroke-width="2" stroke-linecap="round" stroke-linejoin="round"/>
<path d="M13.8343 12.743C12.0128 12.743 10.2659 13.4666 8.97795 14.7546C7.68996 16.0426 6.96637 17.7895 6.96637 19.611C6.96637 21.4325 7.68996 23.1794 8.97795 24.4674C10.2659 25.7554 12.0128 26.4789 13.8343 26.4789C15.6558 26.4789 17.4027 25.7554 18.6907 24.4674C19.9787 23.1794 20.7023 21.4325 20.7023 19.611C20.7023 17.7895 19.9787 16.0426 18.6907 14.7546C17.4027 13.4666 15.6558 12.743 13.8343 12.743V12.743Z" stroke="#222223" stroke-width="2" stroke-linecap="round" stroke-linejoin="round"/>
<circle cx="6.67316" cy="7.21461" r="1.96882" stroke="#222223" stroke-width="2" stroke-linecap="round" stroke-linejoin="round"/>
<circle cx="12.8658" cy="7.21461" r="1.96882" stroke="#222223" stroke-width="2" stroke-linecap="round" stroke-linejoin="round"/>
</svg>
