<svg width="18" height="18" viewBox="0 0 17 15" fill="none" xmlns="http://www.w3.org/2000/svg">
<path d="M8.73504 0.0488281C4.11612 0.0488281 0.371342 3.76432 0.371342 8.34803C0.371342 9.91598 0.809895 11.3824 1.57151 12.6334L0.0620117 17.0859L4.69261 15.6149C5.89083 16.2722 7.2689 16.6472 8.73504 16.6472C13.3546 16.6472 17.0991 12.9312 17.0991 8.34803C17.0991 3.76432 13.3546 0.0488281 8.73504 0.0488281ZM12.894 11.4998C12.6972 11.9876 11.8073 12.4328 11.4147 12.4533C11.0225 12.4741 11.0113 12.7573 8.87282 11.8283C6.73463 10.8991 5.44821 8.63979 5.34679 8.49429C5.24529 8.34932 4.51851 7.3136 4.55772 6.27129C4.59719 5.22879 5.16797 4.73696 5.3717 4.5324C5.57519 4.32754 5.8085 4.29084 5.95096 4.28852C6.11935 4.28578 6.22842 4.2835 6.35304 4.2881C6.47755 4.29282 6.66458 4.26205 6.8265 4.6927C6.98836 5.1233 7.37576 6.18165 7.42531 6.28951C7.47483 6.39747 7.50548 6.52247 7.42919 6.66109C7.35268 6.80001 7.31351 6.88679 7.2025 7.00651C7.09088 7.12623 6.96771 7.27431 6.86815 7.36585C6.7571 7.4672 6.64111 7.57775 6.75786 7.7944C6.87454 8.0109 7.27708 8.72064 7.89034 9.30553C8.67849 10.0574 9.35819 10.3068 9.56735 10.4204C9.77708 10.5347 9.90224 10.522 10.0323 10.3851C10.1617 10.2482 10.589 9.7863 10.7395 9.58006C10.8899 9.37326 11.0308 9.41376 11.2241 9.49149C11.4172 9.56953 12.447 10.1211 12.6567 10.235C12.8663 10.3487 13.0063 10.4072 13.0564 10.4974C13.1065 10.5879 13.0907 11.012 12.894 11.4998Z" fill="white"/>
</svg>
