<svg width="19" height="13" viewBox="0 0 19 13" fill="none" xmlns="http://www.w3.org/2000/svg">
<path d="M9.97935 12.9125L6.28644 12.8435C5.09076 12.8195 3.89211 12.8675 2.71987 12.6183C0.936632 12.246 0.810301 10.4207 0.678108 8.88954C0.495961 6.73696 0.566476 4.54531 0.910211 2.41069C1.10426 1.21295 1.86793 0.49825 3.04891 0.420477C7.03559 0.138227 11.0488 0.171677 15.0266 0.303356C15.4467 0.315428 15.8697 0.381406 16.284 0.456507C18.3288 0.822796 18.3787 2.89134 18.5112 4.63266C18.6434 6.39195 18.5876 8.16028 18.335 9.90759C18.1322 11.3543 17.7444 12.5675 16.1077 12.6847C14.057 12.8378 12.0534 12.9611 9.99693 12.9219C9.99702 12.9125 9.98521 12.9125 9.97935 12.9125ZM7.80828 9.24984C9.35364 8.3431 10.8695 7.45147 12.4061 6.55082C10.8578 5.64408 9.34481 4.75245 7.80828 3.8518V9.24984Z" fill="white"/>
</svg>
