<svg width="19" height="15" viewBox="0 0 19 15" fill="none" xmlns="http://www.w3.org/2000/svg">
<path d="M2.63672 6.85632V5.20376C2.63672 4.91157 2.75279 4.63134 2.9594 4.42473C3.16601 4.21812 3.44624 4.10205 3.73843 4.10205H8.14526C8.43745 4.10205 8.71767 4.21812 8.92428 4.42473C9.13089 4.63134 9.24697 4.91157 9.24697 5.20376V6.85632" stroke="#B7B7B7" stroke-width="1.2" stroke-linecap="round" stroke-linejoin="round"/>
<path d="M9.24707 6.85632V5.20376C9.24707 4.91157 9.36314 4.63134 9.56975 4.42473C9.77636 4.21812 10.0566 4.10205 10.3488 4.10205H14.7556C15.0478 4.10205 15.328 4.21812 15.5346 4.42473C15.7412 4.63134 15.8573 4.91157 15.8573 5.20376V6.85632" stroke="#B7B7B7" stroke-width="1.2" stroke-linecap="round" stroke-linejoin="round"/>
<path d="M2.45332 6.85596H16.041C16.4306 6.85596 16.8043 7.01072 17.0797 7.2862C17.3552 7.56168 17.51 7.93531 17.51 8.3249V11.8136H0.984375V8.3249C0.984375 7.93531 1.13914 7.56168 1.41462 7.2862C1.6901 7.01072 2.06373 6.85596 2.45332 6.85596V6.85596Z" stroke="#B7B7B7" stroke-width="1.2" stroke-linecap="round" stroke-linejoin="round"/>
<path d="M0.984375 11.8135V14.0169" stroke="#B7B7B7" stroke-width="1.2" stroke-linecap="round" stroke-linejoin="round"/>
<path d="M17.5098 11.8135V14.0169" stroke="#B7B7B7" stroke-width="1.2" stroke-linecap="round" stroke-linejoin="round"/>
<path d="M15.8572 6.85602V1.89834C15.8572 1.60615 15.7411 1.32592 15.5345 1.11931C15.3279 0.912703 15.0477 0.796631 14.7555 0.796631H3.73843C3.44624 0.796631 3.16601 0.912703 2.9594 1.11931C2.75279 1.32592 2.63672 1.60615 2.63672 1.89834V6.85602" stroke="#B7B7B7" stroke-width="1.2" stroke-linecap="round" stroke-linejoin="round"/>
</svg>
