<svg width="17" height="15" viewBox="0 0 17 15" fill="none" xmlns="http://www.w3.org/2000/svg">
<path d="M0.939941 1.98106C0.939941 1.49104 1.11203 1.08679 1.45619 0.768288C1.80035 0.449776 2.24778 0.290527 2.79844 0.290527C3.33928 0.290527 3.77685 0.447321 4.11119 0.760938C4.45535 1.08434 4.62744 1.50574 4.62744 2.02517C4.62744 2.49558 4.46028 2.88757 4.12594 3.20119C3.78178 3.5246 3.32944 3.6863 2.76894 3.6863H2.75419C2.21335 3.6863 1.77578 3.5246 1.44144 3.20119C1.1071 2.87778 0.939941 2.47107 0.939941 1.98106ZM1.13169 14.8438V5.02403H4.40619V14.8438H1.13169ZM6.22044 14.8438H9.49493V9.36063C9.49493 9.01761 9.53427 8.753 9.61293 8.56681C9.7506 8.2336 9.95956 7.95184 10.2398 7.72154C10.5201 7.49123 10.8716 7.37608 11.2944 7.37608C12.3958 7.37608 12.9464 8.11599 12.9464 9.59583V14.8438H16.2209V9.21362C16.2209 7.76319 15.8768 6.66312 15.1884 5.9134C14.5001 5.16368 13.5905 4.78883 12.4597 4.78883C11.1912 4.78883 10.2029 5.33274 9.49493 6.42056V6.44996H9.48018L9.49493 6.42056V5.02403H6.22044C6.2401 5.33763 6.24994 6.31275 6.24994 7.9494C6.24994 9.58603 6.2401 11.8842 6.22044 14.8438Z" fill="white"/>
</svg>
