<svg width="19" height="23" viewBox="0 0 19 23" fill="none" xmlns="http://www.w3.org/2000/svg">
<path d="M9.3374 13.8286C11.6719 13.8286 13.5644 11.9361 13.5644 9.60156C13.5644 7.26702 11.6719 5.37451 9.3374 5.37451C7.00286 5.37451 5.11035 7.26702 5.11035 9.60156C5.11035 11.9361 7.00286 13.8286 9.3374 13.8286Z" stroke="#8D8D91" stroke-width="1.6" stroke-linecap="round" stroke-linejoin="round"/>
<path d="M17.792 9.60155C17.792 17.0224 11.2804 21.1846 9.68638 22.0948C9.58009 22.1555 9.45981 22.1875 9.33741 22.1875C9.21501 22.1875 9.09473 22.1555 8.98844 22.0948C7.39438 21.1837 0.883789 17.0205 0.883789 9.60155C0.883789 7.35939 1.77449 5.20906 3.35993 3.62361C4.94538 2.03816 7.09572 1.14746 9.33788 1.14746C11.58 1.14746 13.7304 2.03816 15.3158 3.62361C16.9013 5.20906 17.792 7.35939 17.792 9.60155Z" stroke="#8D8D91" stroke-width="1.6" stroke-linecap="round" stroke-linejoin="round"/>
</svg>
