<svg width="24" height="24" viewBox="0 0 24 24" fill="none" xmlns="http://www.w3.org/2000/svg">
<path d="M22.0315 4.33939V16.3394C22.0315 17.135 21.7154 17.8981 21.1528 18.4607C20.5902 19.0233 19.8271 19.3394 19.0315 19.3394H4.03149C3.23584 19.3394 2.47278 19.0233 1.91017 18.4607C1.34756 17.8981 1.03149 17.135 1.03149 16.3394V4.33939" stroke="#fb8722" stroke-width="1.8" stroke-linecap="round" stroke-linejoin="round"/>
<path d="M22.0315 4.33939C22.0315 3.54374 21.7154 2.78068 21.1528 2.21807C20.5902 1.65546 19.8271 1.33939 19.0315 1.33939H4.03149C3.23584 1.33939 2.47278 1.65546 1.91017 2.21807C1.34756 2.78068 1.03149 3.54374 1.03149 4.33939L9.94149 9.88539C10.4183 10.1834 10.9692 10.3414 11.5315 10.3414C12.0938 10.3414 12.6447 10.1834 13.1215 9.88539L22.0315 4.33939Z" stroke="#fb8722" stroke-width="1.8" stroke-linecap="round" stroke-linejoin="round"/>
</svg>
