<svg width="16" height="15" viewBox="0 0 16 15" fill="none" xmlns="http://www.w3.org/2000/svg">
<path d="M2.81836 5.90698H13.3184" stroke="#B7B7B7" stroke-width="1.2" stroke-linecap="round" stroke-linejoin="round"/>
<path d="M4.31836 8.90698H5.81836" stroke="#B7B7B7" stroke-width="1.2" stroke-linecap="round" stroke-linejoin="round"/>
<path d="M10.3184 8.90698H11.8184" stroke="#B7B7B7" stroke-width="1.2" stroke-linecap="round" stroke-linejoin="round"/>
<path d="M2.81836 11.907V13.407" stroke="#B7B7B7" stroke-width="1.2" stroke-linecap="round" stroke-linejoin="round"/>
<path d="M13.3184 11.907V13.407" stroke="#B7B7B7" stroke-width="1.2" stroke-linecap="round" stroke-linejoin="round"/>
<path d="M14.5684 7.77898L13.3184 5.90698L12.1604 2.43298C12.0609 2.13425 11.8699 1.87441 11.6145 1.69027C11.3591 1.50612 11.0523 1.40701 10.7374 1.40698H5.39941C5.08454 1.40701 4.77768 1.50612 4.52228 1.69027C4.26688 1.87441 4.0759 2.13425 3.97641 2.43298L2.81841 5.90698L1.56841 7.77898C1.40412 8.02536 1.31644 8.31485 1.31641 8.61098V10.411C1.31641 10.8088 1.47444 11.1903 1.75575 11.4716C2.03705 11.7529 2.41858 11.911 2.81641 11.911H13.3164C13.7142 11.911 14.0958 11.7529 14.3771 11.4716C14.6584 11.1903 14.8164 10.8088 14.8164 10.411V8.61098C14.8176 8.31527 14.7313 8.02581 14.5684 7.77898V7.77898Z" stroke="#B7B7B7" stroke-width="1.2" stroke-linecap="round" stroke-linejoin="round"/>
</svg>
