<svg width="13" height="13" viewBox="0 0 13 13" fill="none" xmlns="http://www.w3.org/2000/svg">
<path d="M11.59 0.531084L11.5896 0.531084L1.89666 0.531083C1.7337 0.531083 1.57741 0.595819 1.46218 0.711051C1.34694 0.826283 1.28221 0.982572 1.28221 1.14553C1.28221 1.3085 1.34694 1.46479 1.46218 1.58002C1.57741 1.69525 1.7337 1.75999 1.89666 1.75999L10.106 1.75999L0.874676 10.9919C0.874616 10.992 0.874555 10.992 0.874495 10.9921C0.758102 11.1077 0.69417 11.263 0.69417 11.4265C0.69417 11.5899 0.758049 11.7451 0.874351 11.8608C0.990004 11.9771 1.14524 12.0409 1.30862 12.0409C1.47204 12.0409 1.62731 11.977 1.74297 11.8607C1.74305 11.8606 1.74313 11.8605 1.74321 11.8604L10.9751 2.62852L10.9751 10.8385C10.9751 11.0014 11.0399 11.1577 11.1551 11.2729C11.2703 11.3882 11.4266 11.4529 11.5896 11.4529C11.7525 11.4529 11.9088 11.3882 12.0241 11.2729C12.1393 11.1577 12.204 11.0014 12.204 10.8385L12.204 1.14554L12.204 1.14485C12.2034 1.02291 12.1667 0.903893 12.0986 0.802751C12.0305 0.701609 11.934 0.622862 11.8212 0.576412L11.8213 0.576306L11.8162 0.574442L11.8027 0.569535C11.8026 0.569498 11.8025 0.569461 11.8024 0.569424C11.7344 0.544276 11.6625 0.531299 11.59 0.531084Z" fill="#F85757" stroke="#F85757" stroke-width="0.259611"/>
</svg>
